<svg width="146" height="274" viewBox="0 0 146 274" fill="none" xmlns="http://www.w3.org/2000/svg">
<g style="mix-blend-mode:multiply" opacity="0.2">
<path d="M27.1876 273.408C24.9559 273.408 22.2899 272.565 18.7402 270.658C9.31916 265.485 -0.341484 249.95 -10.5413 233.522C-16.158 224.5 -21.9544 215.168 -27.7807 207.521C-36.288 193.704 -50.7116 184.184 -64.6709 174.956C-74.8707 168.219 -84.5014 161.844 -91.9603 153.973L-91.9753 153.956C-97.5769 147.838 -100.198 141.927 -99.9884 135.895C-99.584 124.123 -88.3956 113.641 -75.4249 101.508L-74.1817 100.34C-64.566 91.3004 -52.494 79.2023 -35.0149 61.1411L-33.5321 59.6632C-17.8954 44.0594 1.57568 24.6406 26.7982 12.8691C77.3181 -14.4032 121.532 6.7169 135.492 29.607C150.05 56.3637 148.792 84.7702 130.699 138.232C111.752 193.962 69.7843 237.044 52.6198 252.975C45.5952 258.233 41.1918 262.89 37.9866 266.293C33.9126 270.589 31.2615 273.408 27.1876 273.408ZM-90.6423 152.324C-83.3481 160.022 -73.8073 166.329 -63.7123 173.014C-49.5883 182.345 -34.97 192.003 -26.2829 206.129C-20.4416 213.776 -14.6153 223.159 -8.98363 232.216C1.08141 248.404 10.5923 263.698 19.549 268.63C28.4008 273.356 30.4827 271.156 36.6685 264.626C39.9337 261.172 44.412 256.429 51.4815 251.136C68.4363 235.378 110.104 192.622 128.886 137.39C146.725 84.7014 148.028 56.8105 133.874 30.81C120.319 8.60722 77.1384 -11.877 27.577 14.8797C2.60915 26.5481 -16.7271 45.8294 -32.259 61.3129L-33.7269 62.7908C-51.2208 80.8692 -63.3079 92.9845 -72.9536 102.041L-74.1967 103.209C-86.8079 114.998 -97.6818 125.189 -98.0562 135.946C-98.236 141.325 -95.8096 146.67 -90.6423 152.324Z" fill="#CCCCCC"/>
<path d="M24.2807 257.838C21.1953 257.838 17.9301 256.704 13.4368 254.693L13.3469 254.659C4.71974 249.692 -2.1101 237.714 -9.32937 225.049C-14.257 216.388 -19.3645 207.452 -25.5053 199.667C-34.1625 187.036 -45.0513 177.207 -55.5656 167.704C-62.6351 161.328 -69.3152 155.296 -75.1415 148.629L-75.2464 148.491C-87.1088 129.949 -78.6014 121.769 -63.1743 106.904C-61.4968 105.288 -59.7295 103.587 -57.8872 101.766C-54.2626 98.6895 -50.3983 95.2526 -46.2944 91.6094C-28.0665 75.4042 -3.08366 53.2186 32.159 35.209C75.2349 16.2885 108.515 29.9676 122.415 51.9126C136.344 74.7855 130.937 102.316 115.285 148.302C98.1359 194.804 66.8324 224.912 50.0124 241.083L48.1402 242.887C35.6338 253.542 30.2718 257.838 24.2807 257.838ZM14.1857 252.631C26.4524 258.096 28.5344 256.79 46.942 241.151L48.7693 239.399C65.4545 223.348 96.5183 193.464 113.488 147.494C128.885 102.281 134.262 75.2667 120.842 53.2358C107.392 31.9954 74.9803 18.8147 32.9078 37.2883C-2.08015 55.1605 -26.9432 77.2601 -45.1112 93.3794C-49.2151 97.0226 -53.0793 100.46 -56.674 103.518C-58.4713 105.288 -60.2387 106.99 -61.9162 108.622C-77.3583 123.504 -84.4277 130.31 -73.7187 147.116C-67.9822 153.664 -61.362 159.627 -54.3674 165.951C-43.7482 175.523 -32.7845 185.438 -24.0225 198.224C-17.8217 206.077 -12.6694 215.099 -7.69681 223.829C-0.642288 236.202 6.03778 247.905 14.1857 252.631Z" fill="#CCCCCC"/>
<path d="M21.7687 244.846C17.8296 244.846 14.175 243.231 9.62176 240.481C2.01307 235.223 -4.09787 224.345 -10.5682 212.848C-14.4025 206.009 -18.3866 198.946 -22.9399 192.467C-29.3054 182.294 -36.8542 173.598 -44.1333 165.178C-50.1095 158.269 -55.7561 151.756 -60.2045 145.037L-60.2644 144.934C-69.281 127.509 -59.9648 119.38 -43.04 104.619L-42.8453 104.447L-39.7149 101.989C-21.8914 88.0524 2.52231 68.9601 35.9676 55.1264C75.4489 40.674 100.582 55.4014 110.122 72.3799C120.322 90.4927 117.821 114.809 101.495 156.31C89.6029 185.232 70.1917 211.233 43.8159 233.59C33.6161 241.53 27.4003 244.846 21.7687 244.846ZM-58.6318 143.714C-54.2583 150.296 -48.6716 156.757 -42.7554 163.58C-35.4163 172.052 -27.8226 180.833 -21.3971 191.092C-16.799 197.605 -12.7999 204.737 -8.93566 211.628C-2.60007 222.919 3.39102 233.573 10.5803 238.54C20.9449 244.829 26.1123 244.709 42.6926 231.769C68.7838 209.635 87.9853 183.926 99.7278 155.365C115.739 114.654 118.285 90.9566 108.49 73.5656C98.5895 55.9512 72.5282 44.0594 36.5817 57.2057C3.406 70.9364 -20.8879 89.9256 -38.6215 103.811L-41.8717 106.371C-58.9164 121.236 -66.7198 128.041 -58.6318 143.714Z" fill="#CCCCCC"/>
<path d="M20.3619 233.024C15.9585 233.024 11.8246 231.288 7.21148 227.885L7.18152 227.868C0.23185 222.403 -5.36982 212.127 -11.301 201.266C-14.0419 196.231 -16.8877 191.041 -19.9731 186.092C-24.092 178.84 -28.6602 172.138 -33.0786 165.676C-38.5006 157.737 -43.6379 150.227 -46.993 142.941C-52.8492 127.561 -44.282 119.518 -29.484 108.056C-14.2366 97.2295 9.32335 81.7976 38.2004 72.6896C65.7744 66.1766 86.4287 71.4008 96.4189 87.3826C107.203 104.602 104.522 131.908 89.0648 162.308C72.8739 198.087 47.2769 219.07 39.818 224.637C31.8798 230.274 25.9037 233.024 20.3619 233.024ZM8.25992 226.012C16.8871 232.353 23.657 233.488 38.7696 222.747C46.1087 217.265 71.3761 196.558 87.3573 161.226C102.425 131.582 105.151 105.152 94.8313 88.6887C85.3054 73.463 65.355 68.5653 38.6348 74.8721C10.0572 83.8941 -13.338 99.2058 -28.4505 109.946C-43.6829 121.735 -50.318 128.746 -45.2705 141.996C-42.0204 149.024 -36.9429 156.448 -31.5659 164.319C-27.1175 170.832 -22.5193 177.551 -18.3855 184.855C-15.2851 189.804 -12.4393 195.045 -9.6834 200.098C-3.84208 210.735 1.65474 220.805 8.25992 226.012Z" fill="#CCCCCC"/>
<path d="M19.4321 222.231C14.7591 222.231 10.4605 220.392 5.99709 216.714L5.87727 216.594C-11.2123 196.746 -31.4173 151.292 -35.2965 142.39L-35.3564 142.184C-38.3819 129.433 -31.5521 121.94 -17.9074 112.575C-5.05649 104.291 15.2384 93.3619 39.023 88.2581C60.9205 84.3056 77.3211 89.6328 85.2293 103.26C94.0063 118.4 91.3253 141.411 77.8902 166.397C66.0578 190.49 48.6237 207.83 36.2521 216.01C29.7817 220.168 24.3898 222.231 19.4321 222.231ZM7.19531 214.961C15.7476 221.956 23.3713 221.715 35.2786 214.068C47.4255 206.043 64.5451 188.995 76.2127 165.263C89.0636 141.359 91.8195 118.658 83.6117 104.498C76.1528 91.6263 60.4262 86.6255 39.3525 90.4577C15.8524 95.51 -4.21772 106.336 -16.9338 114.516C-29.9944 123.47 -36.1503 130.12 -33.5142 141.514C-22.3708 167.085 -5.8503 199.77 7.19531 214.961Z" fill="#CCCCCC"/>
<path d="M18.7482 212.282C13.7457 212.282 9.41711 210.374 6.13698 206.679C-6.98351 192.09 -20.6432 161.312 -24.6722 142.804C-25.3312 138.525 -24.3876 134.349 -21.9013 130.362C-14.2327 118.075 8.48851 107.472 38.8933 102.007C56.0428 100.099 68.8338 105.375 74.9447 116.872C81.8644 129.898 79.3781 148.853 68.1298 168.856C53.4966 194.169 35.9876 210.323 21.2945 212.11C20.4258 212.23 19.572 212.282 18.7482 212.282ZM45.5734 103.846C43.5064 103.846 41.3646 103.966 39.1479 104.224C9.31227 109.585 -12.9446 119.845 -20.2987 131.668C-22.4855 135.174 -23.3092 138.765 -22.7551 142.357C-18.8009 160.487 -5.3809 190.766 7.51493 205.098C10.9149 208.913 15.6179 210.58 21.0998 209.91C35.2238 208.192 52.2085 192.399 66.5122 167.653C77.1764 148.681 79.7226 130.138 73.2971 118.04C68.3695 108.778 58.6489 103.846 45.5734 103.846Z" fill="#CCCCCC"/>
<path d="M19.1484 202.83C14.5053 202.83 10.4163 201.111 7.22608 197.777C-4.157 185.937 -14.6863 160.899 -15.2855 144.212V144.178C-15.3603 128.798 6.92652 116.167 37.6908 114.173C50.7963 113.813 60.5169 118.831 65.0851 128.351C70.3273 139.263 68.1705 154.403 59.1689 169.904C48.0404 188.738 34.1111 200.974 21.8893 202.641C20.9457 202.761 20.0321 202.83 19.1484 202.83ZM-13.3383 144.144C-12.7392 160.332 -2.52442 184.631 8.54413 196.128C11.9141 199.651 16.4374 201.128 21.6496 200.424C33.3173 198.826 46.7374 186.951 57.5513 168.649C66.1335 153.87 68.2604 139.555 63.3776 129.399C59.1689 120.652 50.0924 116.012 37.7657 116.373C8.58905 118.281 -13.3983 130.224 -13.3383 144.144Z" fill="#CCCCCC"/>
<path d="M19.4827 193.876C15.4237 193.876 11.7991 192.449 8.87841 189.648C-1.38134 179.87 -8.67551 160.073 -7.07289 146.394C-5.33547 133.265 13.3418 123.848 35.389 124.93C45.0646 125.566 52.194 130.137 55.4891 137.785C59.2635 146.549 57.5411 158.183 50.7412 169.68C42.7131 183.135 32.1239 192.089 22.4183 193.635C21.4148 193.807 20.4412 193.876 19.4827 193.876ZM31.8992 127.078C12.3383 127.078 -3.64297 135.379 -5.14075 146.721C-6.63852 159.489 0.490885 178.753 10.1216 187.947C13.2969 190.972 17.4457 192.174 22.1487 191.436C31.33 189.975 41.4101 181.365 49.1386 168.425C55.5341 157.616 57.2116 146.807 53.7517 138.764C50.7861 131.873 44.2259 127.749 35.2991 127.147C34.1608 127.113 33.0225 127.078 31.8992 127.078Z" fill="#CCCCCC"/>
<path d="M20.3994 185.318C17.1342 185.318 14.1686 184.235 11.6823 182.122C3.07013 174.784 -1.76767 160.022 0.898367 149.213C3.60934 138.524 17.6884 132.097 32.9207 134.571C39.6757 135.723 44.6333 139.572 46.88 145.415C49.4262 152.031 48.1681 160.417 43.4351 168.425C37.9982 177.568 30.704 183.617 23.4249 185.009C22.4064 185.215 21.3879 185.318 20.3994 185.318ZM2.77058 149.831C0.344191 159.644 4.95733 173.615 12.8356 180.334C15.6365 182.723 19.1862 183.582 23.1103 182.826C29.7754 181.537 36.785 175.695 41.8475 167.188C46.191 159.833 47.3743 152.237 45.1126 146.326C43.1505 141.205 38.7171 137.819 32.6512 136.788C18.5871 134.485 5.182 140.345 2.77058 149.831Z" fill="#CCCCCC"/>
<path d="M21.1514 177.035C18.8898 177.035 16.7031 176.365 14.7859 174.922C8.37544 170.161 5.37989 160.057 8.09086 152.41C10.8168 144.797 20.5374 140.69 29.7786 143.267C34.0473 144.453 37.1627 147.357 38.5556 151.413C40.0833 155.881 39.3045 161.311 36.4287 166.295C32.4596 173.134 26.5734 177.035 21.1514 177.035ZM15.8343 173.066C21.3611 177.173 29.8685 173.598 34.8112 165.075C37.3274 160.71 38.0463 156.018 36.7433 152.238C35.59 148.87 32.9539 146.446 29.3143 145.433C20.9717 143.113 12.2547 146.618 9.88821 153.252C7.50675 159.971 10.1728 168.855 15.8343 173.066Z" fill="#CCCCCC"/>
<path d="M21.7151 168.907C20.4869 168.907 19.2887 168.581 18.1953 167.893C14.4509 165.539 12.9382 160.126 14.8403 155.812C16.7126 151.55 21.8499 149.506 26.2683 151.258C28.3952 152.1 29.9529 153.785 30.6269 156.019C31.3458 158.373 31.0013 161.122 29.6683 163.545C27.7661 166.965 24.6957 168.907 21.7151 168.907ZM22.9133 152.857C20.2024 152.857 17.6412 154.352 16.5478 156.826C15.1249 160.074 16.2632 164.164 19.109 165.934C21.9398 167.721 25.9388 166.106 28.0058 162.343C29.0392 160.469 29.3088 158.493 28.7696 156.74C28.2903 155.159 27.167 153.956 25.6093 153.338C24.7256 153.011 23.812 152.857 22.9133 152.857Z" fill="#CCCCCC"/>
</g>
</svg>
