<svg width="1934" height="434" viewBox="0 0 1934 434" fill="none" xmlns="http://www.w3.org/2000/svg">
<g opacity="0.3">
<path d="M739.866 433.108C732.96 433.108 726.238 432.755 719.778 432.049C706.23 430.567 693.713 427.526 682.575 423.008C670.603 418.153 660.103 411.539 651.364 403.348C633.8 386.886 625.013 367.171 616.515 348.104C614.845 344.36 613.119 340.489 611.366 336.733C599.408 311.132 584.249 288.707 565.026 268.176C526.679 227.221 472.751 192.268 409.069 167.098C335.421 137.99 256.238 123.49 186.104 126.27C144.882 127.905 90.4173 143.451 66.0756 170C51.6298 185.757 50.465 203.242 62.7093 220.564L62.4662 220.637C56.0461 211.553 53.2489 202.446 54.1546 193.569C54.9855 185.425 58.9182 177.465 65.8459 169.909C76.8639 157.891 95.034 147.24 118.393 139.105C139.977 131.59 164.017 126.969 186.088 126.094C222.791 124.64 261.827 127.866 302.111 135.686C338.627 142.774 374.66 153.292 409.208 166.946C472.928 192.131 526.888 227.102 565.256 268.082C584.489 288.626 599.656 311.064 611.623 336.679C613.378 340.435 615.104 344.308 616.771 348.052C625.262 367.105 634.043 386.806 651.583 403.244C668.546 419.144 691.506 428.775 719.823 431.871C759.038 436.159 806.658 427.191 847.204 407.88C905.633 380.053 946.184 339.55 985.402 300.381C992.276 293.515 999.383 286.416 1006.42 279.561C1024.69 261.76 1049.43 238.693 1078.84 218.143C1108.89 197.138 1139.44 181.706 1172.21 170.962C1192.27 164.386 1213.53 159.955 1235.4 157.794C1255.61 155.796 1276.99 155.672 1298.96 157.422C1336.64 160.426 1377.24 168.909 1423.07 183.355C1513.32 211.802 1603.48 246.331 1691.03 285.984C1774.24 323.673 1855.86 366.32 1933.6 412.738L1933.42 412.867C1772.26 316.645 1600.52 239.479 1422.96 183.512C1322.64 151.892 1243 147.953 1172.33 171.117C1100.43 194.682 1050.21 237.21 1006.64 279.657C999.607 286.51 992.501 293.61 985.626 300.475C946.398 339.658 905.834 380.174 847.364 408.02C828.47 417.019 807.214 424.038 785.897 428.317C774.635 430.578 763.441 432.056 752.621 432.711C748.309 432.978 744.053 433.108 739.866 433.108Z" fill="#FFE492"/>
<path d="M746.619 423.346C729.007 423.346 712.693 421.158 698.114 416.841C681.857 412.027 667.828 404.567 656.415 394.67C655.405 393.793 654.403 392.887 653.436 391.973C636.059 375.582 626.882 356.124 618.009 337.304C616.214 333.501 614.36 329.567 612.479 325.75C601.276 303.021 587.787 282.989 571.236 264.512C569.197 262.237 567.087 259.957 564.957 257.737C526.047 217.134 471.681 182.624 407.737 157.938C333.558 129.327 254.15 115.426 184.141 118.799C143.219 120.791 89.0051 136.592 64.5592 162.937C49.921 178.713 48.2646 196.233 59.7635 213.606L59.5177 213.676C53.4904 204.57 51.0138 195.446 52.1599 186.558C53.2126 178.396 57.3056 170.418 64.3294 162.846C75.4597 150.849 93.5764 140.186 116.716 132.009C138.103 124.452 162.038 119.698 184.117 118.625C220.775 116.859 259.854 119.777 300.266 127.296C336.871 134.108 373.074 144.367 407.87 157.788C471.852 182.488 526.247 217.019 565.182 257.644C567.311 259.867 569.425 262.148 571.463 264.425C588.025 282.914 601.522 302.957 612.73 325.698C614.613 329.515 616.467 333.449 618.263 337.254C627.133 356.061 636.302 375.506 653.655 391.874C654.619 392.784 655.621 393.69 656.628 394.565C680.214 415.023 712.621 423.346 746.701 423.346C746.888 423.346 747.073 423.346 747.26 423.346C747.046 423.344 746.832 423.346 746.619 423.346ZM753.888 423.224C785.572 422.162 818.265 414.219 846.312 402.404C906.813 376.811 950.294 337.283 992.347 299.058C994.078 297.482 995.809 295.91 997.54 294.338C1001.34 290.887 1005.85 286.801 1010.45 282.682C1031.09 264.212 1056.07 242.721 1084.83 223.377C1115.44 202.794 1146.02 187.52 1178.31 176.68C1198.15 170.027 1219.12 165.341 1240.64 162.75C1260.57 160.35 1281.64 159.672 1303.24 160.734C1340.57 162.569 1380.7 169.527 1425.94 182.007C1470.04 194.156 1506.3 205.592 1540.03 217.996C1587.82 235.587 1633.35 255.854 1671.58 273.359C1760.45 314.173 1847.66 360.518 1930.77 411.106L1930.59 411.234C1847.49 360.652 1760.29 314.311 1671.42 273.502C1633.2 255.999 1587.69 235.735 1539.91 218.15C1506.18 205.748 1469.93 194.316 1425.84 182.171C1327.29 154.984 1248.68 153.288 1178.43 176.837C1105.53 201.306 1053.61 244.356 1010.67 282.787C1006.06 286.906 1001.56 290.99 997.757 294.442C996.025 296.013 994.294 297.587 992.563 299.162C950.497 337.4 907 376.942 846.457 402.553C831.444 408.877 815.47 413.9 798.975 417.482C783.621 420.813 768.486 422.739 753.888 423.224Z" fill="#FFE492"/>
<path d="M754.064 413.806C751.946 413.806 749.84 413.777 747.751 413.716C730.155 413.208 713.872 410.575 699.354 405.884C683.476 400.755 669.719 393.157 658.469 383.3C657.47 382.422 656.473 381.514 655.511 380.6C638.33 364.289 628.77 345.09 619.529 326.526C617.603 322.656 615.61 318.654 613.59 314.771C601.834 292.119 587.99 272.247 571.26 254.019C569.189 251.765 567.046 249.505 564.885 247.301C525.411 207.052 470.607 172.985 406.401 148.784C331.693 120.669 252.06 107.367 182.175 111.332C142.826 113.6 88.7698 128.499 63.0682 155.85C48.219 171.652 46.0576 189.22 56.8165 206.653L56.568 206.718C50.9308 197.584 48.7801 188.439 50.1693 179.536C51.4464 171.347 55.7104 163.348 62.8411 155.759C74.0889 143.79 92.1468 133.123 115.065 124.908C136.251 117.314 160.077 112.432 182.15 111.16C218.766 109.084 257.887 111.691 298.425 118.911C335.12 125.447 371.493 135.447 406.534 148.634C470.778 172.851 525.611 206.937 565.11 247.209C567.271 249.414 569.416 251.675 571.487 253.932C588.225 272.17 602.078 292.055 613.838 314.719C615.858 318.604 617.851 322.606 619.777 326.475C629.016 345.029 638.567 364.215 655.728 380.506C656.689 381.42 657.681 382.326 658.68 383.201C704.395 423.252 785.411 418.952 845.42 396.925C908.445 373.588 955.282 334.802 1000.58 297.292L1001.04 296.907C1005.43 293.271 1009.97 289.513 1014.48 285.802C1062.13 246.655 1114.49 206.423 1184.41 182.396C1204.04 175.664 1224.72 170.721 1245.88 167.704C1265.55 164.898 1286.3 163.666 1307.54 164.042C1344.56 164.697 1384.23 170.132 1428.81 180.656C1475.66 191.677 1510.92 201.808 1543.13 213.505C1589.02 230.204 1633.47 251.307 1672.69 269.926C1760.02 311.602 1845.89 358.552 1927.94 409.466L1927.75 409.592C1845.72 358.682 1759.85 311.738 1672.54 270.065C1633.32 251.45 1588.87 230.351 1543 213.656C1510.8 201.963 1475.56 191.836 1428.72 180.818C1332.09 158.006 1254.5 158.555 1184.53 182.547C1114.66 206.559 1062.32 246.773 1014.69 285.907C1010.17 289.618 1005.64 293.378 1001.25 297.012L1000.79 297.397C978.213 316.089 954.873 335.417 929.669 352.681C901.344 372.082 873.828 386.603 845.548 397.073C815.962 407.932 783.733 413.806 754.064 413.806Z" fill="#FFE492"/>
<path d="M1924.92 407.948C1843.95 356.711 1759.41 309.164 1673.65 266.627C1670.02 264.839 1666.38 263.042 1662.73 261.24C1625.58 242.9 1587.17 223.936 1546.1 209.163C1506.25 194.87 1465.86 186.131 1431.61 179.467C1337.07 160.96 1260.5 163.754 1190.64 188.257C1118.93 213.485 1063.37 255.371 1018.72 289.028C1016.04 291.049 1013.37 293.072 1010.69 295.098C1008.71 296.593 1006.73 298.089 1004.75 299.582C979.33 318.766 956.206 335.917 930.657 351.567C901.469 369.445 873.336 382.538 844.645 391.597C817.757 400.087 789.034 404.579 762.317 404.58C757.449 404.58 752.653 404.432 747.941 404.131C730.735 403.031 714.806 399.94 700.598 394.945C685.095 389.495 671.611 381.752 660.515 371.932C659.524 371.052 658.535 370.142 657.579 369.227C640.6 353.002 630.67 334.073 621.068 315.768C619 311.825 616.86 307.746 614.696 303.788C602.379 281.208 588.177 261.494 571.281 243.521C569.178 241.284 567.001 239.045 564.81 236.861C524.77 196.965 469.53 163.341 405.065 139.622C329.828 112.005 249.974 99.3034 180.211 103.856C132.518 107.03 83.7495 125.481 61.6119 148.724C46.5303 164.559 43.8559 182.183 53.872 199.689L53.6209 199.75C48.3764 190.584 46.5489 181.411 48.1893 172.485C49.6988 164.267 54.1392 156.242 61.3848 148.632C72.7501 136.698 90.7493 126.03 113.437 117.786C134.421 110.161 158.124 105.151 180.184 103.684C216.757 101.296 255.918 103.595 296.581 110.514C333.365 116.775 369.911 126.517 405.198 139.469C469.703 163.202 524.973 196.845 565.037 236.765C567.231 238.95 569.408 241.192 571.511 243.428C588.417 261.412 602.625 281.136 614.949 303.727C617.114 307.687 619.254 311.764 621.321 315.708C630.918 334.003 640.843 352.92 657.801 369.126C658.757 370.039 659.743 370.947 660.731 371.826C708.456 414.066 789.571 408.79 844.53 391.438C910.101 370.735 960.278 332.873 1004.55 299.467C1006.53 297.972 1008.51 296.476 1010.49 294.983C1013.16 292.957 1015.84 290.934 1018.52 288.913C1044.01 269.702 1069.17 251.033 1096.84 233.83C1128.66 214.045 1159.3 199.088 1190.52 188.104C1209.94 181.29 1230.33 176.091 1251.12 172.652C1270.55 169.436 1290.98 167.651 1311.84 167.345C1348.63 166.804 1387.83 170.716 1431.69 179.3C1465.95 185.967 1506.36 194.71 1546.23 209.011C1587.32 223.79 1625.74 242.759 1662.89 261.102C1666.54 262.904 1670.18 264.701 1673.82 266.49C1759.58 309.029 1844.13 356.582 1925.11 407.824L1924.92 407.948Z" fill="#FFE492"/>
<path d="M1922.09 406.306C1840.66 353.761 1757.45 305.609 1674.77 263.19C1669.82 260.652 1664.76 258.036 1659.86 255.507C1624.81 237.394 1588.56 218.664 1549.19 204.669C1509.88 190.744 1469.15 183.431 1434.5 178.114C1342.26 163.827 1266.71 168.864 1196.75 193.967C1130.02 217.998 1077.75 254.133 1027.19 289.079L1021.64 292.915C1017.25 295.946 1012.72 299.078 1008.25 302.151C957.644 336.896 906.983 369.461 843.742 386.117C828.396 390.159 812.638 392.96 796.902 394.446C780.004 396.041 763.589 396.064 748.112 394.513C731.301 392.827 715.734 389.287 701.841 383.99C686.722 378.226 673.508 370.342 662.57 360.561C661.584 359.675 660.603 358.764 659.655 357.85C642.885 341.721 632.596 323.071 622.647 305.034C620.427 301.01 618.129 296.847 615.81 292.805C602.922 270.295 588.366 250.74 571.31 233.024C569.178 230.81 566.969 228.588 564.743 226.422C524.139 186.88 468.464 153.699 403.734 130.463C327.965 103.345 247.887 91.2419 178.244 96.3854C130.988 99.9499 82.4405 118.53 60.1907 141.571C44.8579 157.446 41.6546 175.137 50.9253 192.733L50.6715 192.791C45.8197 183.584 44.3209 174.376 46.2151 165.424C47.9624 157.171 52.5871 149.115 59.9609 141.48C71.4492 129.586 89.3842 118.929 111.832 110.661C132.607 103.007 156.182 97.8774 178.212 96.2146C214.742 93.5165 253.944 95.5052 294.735 102.125C331.61 108.111 368.324 117.592 403.86 130.311C468.627 153.559 524.334 186.761 564.962 226.326C567.188 228.494 569.4 230.718 571.532 232.932C588.599 250.656 603.162 270.221 616.056 292.744C618.375 296.786 620.672 300.95 622.893 304.975C632.837 323.001 643.12 341.642 659.871 357.753C660.817 358.663 661.798 359.572 662.781 360.458C709.356 402.11 786.744 400.941 843.638 385.956C906.828 369.314 957.467 336.762 1008.05 302.033C1012.52 298.96 1017.06 295.828 1021.44 292.797L1026.99 288.96C1051.81 271.807 1077.47 254.069 1105.34 237.568C1136.9 218.88 1166.76 204.568 1196.62 193.814C1215.84 186.915 1235.94 181.459 1256.35 177.6C1275.54 173.971 1295.65 171.632 1316.12 170.648C1352.75 168.885 1391.49 171.273 1434.56 177.944C1469.23 183.263 1509.97 190.579 1549.31 204.516C1588.71 218.515 1624.96 237.251 1660.03 255.369C1664.92 257.898 1669.98 260.513 1674.93 263.052C1757.62 305.475 1840.84 353.631 1922.27 406.18L1922.09 406.306Z" fill="#FFE492"/>
<path d="M1919.26 404.665C1838.53 351.537 1756.64 302.782 1675.88 259.756C1669.81 256.523 1663.59 253.161 1657.57 249.91C1624.41 231.992 1590.11 213.464 1552.29 200.181C1513.16 186.495 1472.25 180.664 1437.39 176.767C1347.7 166.586 1273.18 173.868 1202.86 199.682C1141.49 222.304 1091.1 254.365 1042.37 285.37C1037.25 288.632 1031.94 292.005 1026.78 295.273C1020.71 299.111 1016.07 302.027 1011.75 304.726C988.582 319.168 960.999 335.798 932.054 349.63C901.381 364.287 872.198 374.431 842.836 380.643C827.397 383.91 811.706 385.97 796.197 386.765C779.544 387.619 763.42 386.991 748.277 384.898C731.871 382.63 716.666 378.641 703.081 373.04C688.349 366.968 675.41 358.943 664.622 349.193C663.649 348.309 662.674 347.396 661.728 346.479C645.18 330.457 634.546 312.095 624.26 294.337C621.875 290.219 619.409 285.96 616.921 281.824C603.453 259.376 588.543 239.982 571.334 222.529C569.17 220.335 566.929 218.134 564.671 215.984C523.503 176.797 467.39 144.058 402.399 121.305C326.103 94.6859 245.801 83.1838 176.281 88.9148C136.724 92.2474 85.0587 107.6 58.8067 134.383C43.1988 150.307 39.453 168.078 47.9784 185.775L47.7246 185.827C43.2655 176.574 42.1007 167.325 44.2594 158.338C46.2525 150.043 51.0695 141.952 58.5823 134.288C70.1934 122.443 88.0617 111.804 110.261 103.518C130.827 95.8415 154.261 90.5951 176.249 88.7422C212.736 85.7338 251.98 87.4123 292.894 93.7324C329.857 99.4425 366.742 108.666 402.524 121.152C467.553 143.917 523.698 176.675 564.89 215.885C567.148 218.034 569.392 220.239 571.556 222.435C588.773 239.897 603.691 259.301 617.167 281.76C619.657 285.898 622.123 290.156 624.509 294.275C634.787 312.023 645.418 330.375 661.947 346.38C662.893 347.295 663.866 348.206 664.838 349.088C703.585 384.112 770.097 395.846 842.753 380.474C908.552 366.555 962.226 335.357 1011.56 304.597C1015.89 301.898 1020.52 298.982 1026.59 295.144C1031.76 291.876 1037.06 288.503 1042.19 285.241C1066.18 269.977 1090.98 254.194 1117.44 239.415C1147.35 222.702 1175.26 209.654 1202.73 199.527C1221.77 192.538 1241.57 186.826 1261.6 182.552C1280.56 178.503 1300.36 175.611 1320.42 173.954C1356.96 170.938 1395.24 171.801 1437.43 176.591C1472.31 180.492 1513.25 186.324 1552.41 200.022C1590.26 213.314 1624.57 231.847 1657.74 249.771C1663.76 253.021 1669.98 256.384 1676.05 259.617C1756.82 302.648 1838.71 351.406 1919.45 404.538L1919.26 404.665Z" fill="#FFE492"/>
<path d="M1916.42 403.024C1836.39 349.308 1755.84 299.948 1676.99 256.319C1670.28 252.609 1663.39 248.713 1656.73 244.946C1624.99 227.004 1592.18 208.452 1555.38 195.688C1516.22 182.165 1475.22 177.852 1440.27 175.415C1354.66 169.285 1278.99 179.091 1208.96 205.393C1153.2 226.431 1105.4 254.575 1059.17 281.793C1049.84 287.291 1040.18 292.976 1030.8 298.395C1025.06 301.712 1019.97 304.625 1015.24 307.299C993.251 319.719 963.999 335.645 932.74 348.66C901.332 361.736 871.625 370.407 841.924 375.167C809.53 380.36 777.2 380.398 748.431 375.281C732.436 372.434 717.592 367.997 704.311 362.09C689.972 355.712 677.309 347.548 666.667 337.827C665.703 336.942 664.736 336.027 663.795 335.11C647.482 319.21 636.517 301.149 625.916 283.684C623.351 279.459 620.701 275.092 618.027 270.847C603.968 248.459 588.702 229.221 571.355 212.039C569.159 209.863 566.885 207.681 564.596 205.551C522.864 166.717 466.315 134.42 401.062 112.153C324.24 86.0341 243.713 75.1317 174.314 81.45C127.281 85.8249 80.321 104.196 57.4621 127.162C41.5549 143.143 37.2562 161.007 45.0308 178.822L44.7743 178.869C40.7107 169.56 39.8824 160.263 42.311 151.238C44.5552 142.896 49.578 134.763 57.2377 127.066C68.9717 115.276 86.7705 104.661 108.71 96.3683C129.061 88.6765 152.347 83.315 174.276 81.2757C210.721 77.9571 250.008 79.327 291.047 85.3456C328.101 90.7803 365.157 99.7462 401.185 111.996C466.475 134.277 523.056 166.592 564.815 205.45C567.104 207.58 569.378 209.764 571.577 211.941C588.932 229.134 604.206 248.38 618.272 270.779C620.947 275.024 623.597 279.393 626.162 283.618C636.758 301.074 647.717 319.127 664.014 335.01C664.955 335.927 665.919 336.839 666.884 337.724C704.966 372.521 770.377 386.455 841.86 374.998C907.028 364.552 963.62 336.224 1015.07 307.168C1019.79 304.494 1024.88 301.583 1030.62 298.266C1040 292.847 1049.66 287.163 1058.99 281.666C1105.23 254.442 1153.04 226.291 1208.82 205.244C1227.7 198.156 1247.21 192.189 1266.83 187.508C1285.59 183.032 1305.07 179.586 1324.71 177.266C1361.24 172.952 1399.05 172.291 1440.3 175.244C1475.27 177.682 1516.31 181.998 1555.5 195.536C1592.33 208.309 1625.15 226.868 1656.91 244.817C1663.57 248.584 1670.46 252.478 1677.16 256.189C1756.02 299.821 1836.58 349.184 1916.61 402.904L1916.42 403.024Z" fill="#FFE492"/>
<path d="M1913.59 401.381C1834.27 347.072 1755.04 297.111 1678.11 252.883C1671.04 248.818 1663.76 244.515 1656.73 240.352C1626.15 222.258 1594.53 203.547 1558.47 191.195C1519.15 177.787 1478.12 175.011 1443.16 174.063C1360.78 171.664 1286.16 183.78 1215.07 211.103C1165.2 230.356 1120.76 254.723 1077.77 278.287C1062.99 286.39 1049.03 294.043 1034.83 301.516C1029.05 304.557 1023.79 307.29 1018.74 309.868C986.158 326.488 959.051 338.504 933.43 347.682C901.287 359.198 871.059 366.397 841.019 369.688C829.365 370.964 817.754 371.6 806.354 371.6C786.145 371.6 766.591 369.606 748.59 365.656C716.011 358.508 689.139 345.319 668.72 326.454C667.758 325.56 666.799 324.645 665.869 323.732C649.804 307.97 638.532 290.23 627.632 273.072C624.869 268.725 622.016 264.231 619.138 259.862C604.479 237.525 588.855 218.448 571.382 201.539C569.154 199.383 566.848 197.22 564.527 195.109C522.231 156.629 465.244 124.774 399.729 102.99C322.381 77.3735 241.632 67.0689 172.353 73.9746C125.125 78.7801 79.5198 96.8026 56.172 119.89C39.9415 135.938 35.0737 153.908 42.0895 171.86L41.8304 171.903C38.1675 162.529 37.6812 153.176 40.3877 144.104C42.8937 135.706 48.1275 127.528 55.9502 119.795C67.8071 108.069 85.5284 97.4894 107.201 89.1962C127.332 81.4922 150.456 76.0262 172.313 73.8021C208.714 70.1732 248.044 71.2329 289.207 76.9517C326.351 82.1127 363.576 90.8207 399.852 102.833C465.404 124.631 522.423 156.504 564.746 195.006C567.067 197.119 569.373 199.282 571.604 201.44C589.087 218.357 604.719 237.445 619.384 259.79C622.262 264.16 625.118 268.655 627.878 273.002C638.773 290.151 650.039 307.885 666.091 323.633C667.02 324.544 667.977 325.459 668.939 326.352C707.069 361.581 769.773 377.313 840.974 369.513C908.752 362.088 968.784 335.126 1018.57 309.729C1023.62 307.151 1028.88 304.42 1034.66 301.378C1048.85 293.906 1062.82 286.254 1077.6 278.151C1120.59 254.582 1165.05 230.211 1214.93 210.951C1233.66 203.753 1252.89 197.53 1272.07 192.455C1290.66 187.539 1309.81 183.539 1329.01 180.568C1365.61 174.901 1402.96 172.715 1443.17 173.887C1478.16 174.835 1519.23 177.615 1558.6 191.038C1594.68 203.399 1626.31 222.119 1656.91 240.22C1663.94 244.382 1671.21 248.686 1678.28 252.748C1755.22 296.98 1834.46 346.947 1913.78 401.259L1913.59 401.381Z" fill="#FFE492"/>
<path d="M1910.76 399.74C1831.05 344.061 1755.31 294.9 1679.22 249.446C1671.96 245.11 1664.81 240.681 1657.24 235.992C1627.66 217.663 1597.07 198.711 1561.57 186.704C1521.75 173.302 1478.92 172.186 1446.05 172.713C1367.42 173.807 1293.86 188.234 1221.17 216.818C1177.56 234.051 1137.3 254.745 1098.36 274.76C1077.89 285.279 1058.56 295.212 1038.85 304.64C1033 307.441 1027.56 309.993 1022.23 312.442C989.209 327.599 961.21 338.486 934.114 346.706C901.226 356.682 870.477 362.408 840.111 364.21C824.508 365.136 809.012 364.962 794.054 363.693C778.216 362.349 762.971 359.771 748.745 356.032C717.211 347.744 690.977 333.969 670.771 315.088C669.818 314.192 668.867 313.275 667.942 312.362C652.147 296.762 640.592 279.36 629.416 262.531C626.435 258.041 623.352 253.398 620.25 248.883C604.976 226.596 588.999 207.677 571.406 191.047C569.143 188.91 566.806 186.767 564.457 184.675C521.598 146.549 464.176 115.136 398.399 93.8353C337.687 74.2562 275.079 64.0405 217.667 64.0405C201.437 64.0405 185.634 64.8562 170.392 66.5068C123.734 71.6591 78.4139 89.7462 54.9298 112.586C38.3547 128.709 32.8964 146.801 39.1455 164.906L38.8837 164.944C35.6215 155.497 35.4853 146.08 38.4776 136.955C41.2508 128.496 46.7117 120.264 54.7054 112.489C66.6852 100.837 84.3237 90.3005 105.719 82.016C125.914 74.1952 148.262 68.7727 170.344 66.336C206.703 62.3969 246.075 63.1481 287.364 68.5653C324.596 73.4492 361.994 81.8975 398.516 93.6767C464.331 114.99 521.788 146.42 564.674 184.569C567.025 186.66 569.365 188.806 571.628 190.945C589.229 207.583 605.214 226.51 620.496 248.808C623.598 253.323 626.683 257.966 629.665 262.458C640.835 279.28 652.385 296.675 668.167 312.262C669.091 313.174 670.042 314.091 670.993 314.985C708.779 350.293 770.409 368.169 840.089 364.034C910.598 359.849 974.387 334.186 1022.08 312.295C1027.41 309.846 1032.85 307.295 1038.7 304.495C1058.41 295.071 1077.73 285.136 1098.2 274.619C1137.14 254.602 1177.41 233.902 1221.04 216.664C1258.46 201.948 1295.18 191.223 1333.31 183.875C1370.07 176.788 1406.95 173.079 1446.05 172.535C1468.35 172.178 1486.55 172.798 1503.32 174.485C1524.96 176.664 1544.06 180.609 1561.7 186.545C1597.23 198.563 1627.83 217.525 1657.43 235.863C1665 240.552 1672.15 244.979 1679.4 249.316C1755.5 294.771 1831.24 343.936 1910.96 399.618L1910.76 399.74Z" fill="#FFE492"/>
<path d="M1907.92 398.096C1828.94 341.808 1754.5 292.061 1680.33 246.008C1673 241.452 1665.76 236.758 1658.1 231.789C1629.4 213.17 1599.73 193.915 1564.66 182.209C1524.52 168.87 1481.73 169.403 1448.94 171.357C1374.73 175.626 1302.22 192.364 1227.28 222.524C1190.35 237.457 1155.19 254.545 1121.19 271.072C1094.31 284.136 1068.92 296.476 1042.88 307.755C1036.99 310.307 1031.22 312.747 1025.73 315.006C992.64 328.608 962.896 338.653 934.798 345.716C901.154 354.173 869.884 358.429 839.203 358.726C823.592 358.875 808.158 357.955 793.338 355.987C777.802 353.924 762.851 350.697 748.9 346.396C718.448 337.006 692.851 322.646 672.821 303.711C671.881 302.817 670.935 301.899 670.013 300.98C654.515 285.57 642.708 268.536 631.29 252.063C628.06 247.402 624.717 242.581 621.359 237.894C605.46 215.648 589.128 196.89 571.431 180.544C569.136 178.427 566.766 176.302 564.385 174.23C520.963 136.457 463.102 105.488 397.063 84.6693C318.665 60.0582 237.465 50.9528 168.426 59.0298C122.371 64.5115 77.3536 82.6456 53.7386 105.226C36.7894 121.434 30.7247 139.663 36.1963 157.943L35.9345 157.976C33.0811 148.447 33.3002 138.957 36.589 129.769C39.6428 121.241 45.3361 112.949 53.5168 105.127C65.6142 93.5585 83.1645 83.0744 104.271 74.8074C124.234 66.9883 146.401 61.4735 168.378 58.8573C204.697 54.6096 244.109 55.0488 285.52 60.1662C322.844 64.7782 360.41 72.9685 397.178 84.5107C463.257 105.339 521.15 136.328 564.596 174.123C566.98 176.196 569.352 178.322 571.647 180.442C589.355 196.796 605.692 215.563 621.599 237.818C624.96 242.504 628.3 247.326 631.533 251.988C642.946 268.454 654.747 285.481 670.235 300.881C671.157 301.798 672.102 302.716 673.04 303.609C711.224 339.703 770.233 359.217 839.197 358.548C895.156 358.007 954.382 344.123 1025.58 314.854C1031.07 312.595 1036.84 310.157 1042.73 307.605C1068.76 296.328 1094.15 283.991 1121.02 270.927C1155.03 254.399 1190.2 237.307 1227.13 222.371C1264.92 207.163 1301.05 195.653 1337.59 187.177C1374.61 178.591 1411.03 173.356 1448.91 171.178C1481.74 169.22 1524.58 168.689 1564.78 182.049C1599.89 193.769 1629.58 213.032 1658.29 231.66C1665.95 236.629 1673.18 241.321 1680.52 245.875C1754.69 291.931 1829.14 341.681 1908.12 397.973L1907.92 398.096Z" fill="#FFE492"/>
<path d="M1905.09 396.453C1826.85 339.553 1753.7 289.217 1681.45 242.571C1674.11 237.835 1666.87 232.915 1659.21 227.705C1631.32 208.754 1602.48 189.157 1567.76 177.716C1527.24 164.426 1484.52 166.613 1451.83 170.003C1382.01 177.106 1312.6 195.61 1233.38 228.235C1203.67 240.527 1174.64 254.01 1146.56 267.05C1112.46 282.887 1080.25 297.847 1046.9 310.876C1040.89 313.225 1034.95 315.481 1029.23 317.576C995.543 329.906 964.881 338.788 935.484 344.728C919.018 348.055 902.764 350.466 887.172 351.894C870.541 353.415 854.097 353.87 838.296 353.246C806.239 351.979 776.214 346.433 749.059 336.763C719.732 326.319 694.773 311.374 674.877 292.341C673.942 291.439 673.004 290.519 672.088 289.606C656.921 274.423 644.904 257.793 633.285 241.712C629.766 236.844 626.13 231.81 622.472 226.912C605.932 204.703 589.245 186.103 571.456 170.049C569.129 167.948 566.725 165.843 564.315 163.791C520.328 126.371 462.032 95.8441 395.732 75.5121C316.81 51.4047 235.388 42.8989 166.464 51.5599C92.6641 60.9773 20.7504 101.667 33.2538 150.986L32.9893 151.013C29.8608 138.676 31.6936 126.523 38.4342 114.886C44.5898 104.259 54.6914 94.258 68.4586 85.1631C81.2587 76.706 96.6155 69.4046 114.099 63.461C130.728 57.8085 148.817 53.6323 166.411 51.3873C202.687 46.8294 242.142 46.9601 283.679 51.7777C321.093 56.116 358.831 64.0484 395.844 75.3552C462.182 95.7012 520.513 126.245 564.526 163.687C566.939 165.74 569.343 167.845 571.673 169.948C589.469 186.009 606.164 204.619 622.713 226.837C626.37 231.735 630.006 236.769 633.525 241.639C645.141 257.714 657.153 274.337 672.313 289.512C673.226 290.425 674.161 291.345 675.096 292.245C713.336 328.823 771.301 350.424 838.312 353.074C895.043 355.313 957.448 343.654 1029.09 317.426C1034.81 315.331 1040.76 313.077 1046.76 310.727C1080.11 297.702 1112.31 282.744 1146.41 266.909C1174.49 253.868 1203.52 240.382 1233.24 228.089C1312.49 195.449 1381.93 176.939 1451.78 169.831C1473.75 167.553 1491.94 166.824 1509.02 167.54C1530.86 168.456 1550.11 171.732 1567.88 177.559C1602.64 189.012 1631.49 208.621 1659.4 227.583C1667.06 232.791 1674.3 237.712 1681.63 242.446C1753.88 289.095 1827.04 339.433 1905.29 396.336L1905.09 396.453Z" fill="#FFE492"/>
<path d="M1902.26 394.814C1824.76 337.294 1752.89 286.372 1682.56 239.137C1675.28 234.25 1668.09 229.13 1660.48 223.708C1633.35 204.394 1605.29 184.421 1570.85 173.226C1529.45 159.824 1484.74 164.197 1454.72 168.652C1373.22 180.595 1300.18 208.361 1239.49 233.95C1217.68 243.184 1195.92 252.966 1174.87 262.425C1132.66 281.401 1092.79 299.324 1050.93 314C1044.78 316.16 1038.65 318.229 1032.73 320.151C998.387 331.27 966.805 338.988 936.177 343.743C901.455 349.134 868.222 350.49 837.394 347.771C805.724 344.977 776.057 338.033 749.223 327.13C721.077 315.696 696.756 300.168 676.933 280.976C676.008 280.075 675.076 279.153 674.165 278.236C659.374 263.332 647.207 247.158 635.439 231.517C631.583 226.39 627.595 221.092 623.587 215.934C606.154 193.446 589.598 175.533 571.487 159.557C569.127 157.476 566.694 155.391 564.249 153.357C519.693 116.293 460.959 86.2084 394.397 66.3575C314.952 42.7556 233.305 34.8476 164.498 44.0925C90.434 54.1757 19.9897 94.3134 30.3078 144.032L30.0433 144.055C27.4838 131.72 29.6986 119.578 36.6236 107.968C42.9715 97.3305 53.1319 87.3187 66.827 78.2133C79.5976 69.7214 94.8743 62.366 112.235 56.3474C128.765 50.6165 146.82 46.32 164.445 43.9199C200.681 39.0517 240.176 38.8739 281.836 43.39C319.341 47.4547 357.25 55.1291 394.509 66.1989C461.111 86.0603 519.878 116.162 564.455 153.249C566.899 155.285 569.336 157.371 571.698 159.453C589.82 175.436 606.381 193.359 623.822 215.856C627.83 221.013 631.819 226.314 635.674 231.44C647.44 247.076 659.604 263.244 674.384 278.142C675.295 279.059 676.225 279.979 677.149 280.88C715.685 318.187 772.606 341.881 837.426 347.598C895.562 352.726 959.404 343.696 1032.61 319.995C1038.53 318.074 1044.65 316.007 1050.8 313.847C1092.65 299.174 1132.51 281.255 1174.72 262.28C1195.77 252.821 1217.53 243.038 1239.34 233.802C1280.16 216.597 1314.11 203.885 1346.18 193.798C1383.95 181.925 1419.43 173.644 1454.65 168.481C1476.13 165.295 1494.85 163.852 1511.88 164.071C1533.81 164.354 1553.14 167.296 1570.97 173.069C1605.45 184.278 1633.53 204.263 1660.67 223.59C1668.29 229.01 1675.48 234.129 1682.75 239.013C1753.09 286.25 1824.95 337.175 1902.46 394.698L1902.26 394.814Z" fill="#FFE492"/>
<path d="M1899.43 393.169C1822.68 335.026 1752.1 283.517 1683.68 235.697C1676.5 230.682 1669.4 225.385 1661.88 219.776C1635.47 200.073 1608.15 179.699 1573.95 168.731C1532.09 155.36 1487.51 161.508 1457.61 167.296C1383.77 181.469 1317.9 208.454 1245.6 239.658C1232.56 245.307 1219.37 251.138 1206.61 256.778C1157.55 278.468 1106.82 300.895 1054.96 317.119C1048.66 319.092 1042.35 320.976 1036.22 322.719C1001.65 332.536 968.221 339.274 936.863 342.748C901.34 346.684 867.57 346.528 836.483 342.289C805.256 338.031 775.95 329.688 749.378 317.49C722.487 305.146 698.8 289.036 678.976 269.607C678.06 268.704 677.135 267.78 676.23 266.863C661.886 252.307 649.641 236.66 637.8 221.53C633.534 216.077 629.123 210.441 624.69 204.955C606.576 182.49 589.675 164.731 571.502 149.065C569.117 147.008 566.648 144.941 564.169 142.922C519.057 106.206 459.89 76.5647 393.061 57.1982C313.095 34.1018 231.226 26.7934 162.532 36.6204C90.8185 46.9913 19.0732 85.7206 27.358 137.073L27.0936 137.09C25.1032 124.755 27.7 112.627 34.8094 101.043C41.347 90.3936 51.5688 80.3731 65.1891 71.2572C90.3189 54.4408 125.778 41.7536 162.473 36.4479C198.666 31.2712 238.205 30.7831 279.99 34.9977C317.586 38.7905 355.663 46.2052 393.168 57.0379C460.034 76.4148 519.236 106.075 564.377 142.809C566.859 144.829 569.328 146.896 571.716 148.955C589.897 164.629 606.806 182.396 624.925 204.87C629.358 210.357 633.771 215.994 638.038 221.446C649.876 236.573 662.118 252.217 676.454 266.765C677.357 267.682 678.282 268.604 679.198 269.507C718.859 308.379 773.265 333.487 836.533 342.117C895.118 350.107 962.263 343.527 1036.11 322.559C1042.24 320.816 1048.54 318.933 1054.83 316.962C1106.68 300.743 1157.4 278.32 1206.45 256.633C1219.21 250.993 1232.4 245.163 1245.44 239.514C1277.09 225.854 1313.92 210.186 1350.47 197.105C1388.71 183.422 1423.72 173.618 1457.52 167.131C1478.8 163.012 1497.52 160.875 1514.73 160.6C1536.44 160.251 1556.4 162.935 1574.06 168.576C1589.38 173.489 1604.8 180.822 1621.2 190.994C1635.69 199.976 1649.1 209.984 1662.08 219.661C1669.59 225.268 1676.69 230.565 1683.87 235.578C1752.3 283.401 1822.87 334.911 1899.63 393.056L1899.43 393.169Z" fill="#FFE492"/>
<path d="M1896.59 391.528C1820.59 332.757 1751.31 280.661 1684.79 232.262C1677.74 227.137 1670.76 221.68 1663.38 215.904C1637.65 195.791 1611.05 174.994 1577.04 164.241C1545.26 154.224 1507.14 154.782 1460.49 165.946C1395.27 181.467 1336.97 207.429 1275.24 234.918C1267.56 238.341 1259.61 241.879 1251.7 245.374C1248.61 246.746 1245.51 248.121 1242.41 249.495C1183.6 275.586 1122.78 302.565 1058.98 320.243C1052.53 322.031 1046.05 323.731 1039.72 325.292C1004.39 333.995 970.016 339.534 937.56 341.755C901.217 344.24 866.905 342.578 835.582 336.812C804.842 331.152 775.897 321.409 749.551 307.852C724.015 294.711 700.964 278.02 681.036 258.239C680.127 257.335 679.211 256.409 678.311 255.491C664.511 241.391 652.307 226.376 640.501 211.855C635.721 205.974 630.776 199.892 625.809 193.973C606.995 171.524 589.752 153.918 571.537 138.569C569.116 136.529 566.618 134.483 564.107 132.484C518.424 96.1233 458.818 66.9229 391.727 48.0411C311.243 25.4518 229.147 18.7413 160.568 29.1505C90.1716 39.9239 18.5277 78.9705 24.4134 130.117L24.1463 130.131C22.7276 117.794 25.7039 105.68 32.9976 94.1258C39.7275 83.4639 50.0082 73.4313 63.5563 64.3084C88.5793 47.4571 123.915 34.5816 160.506 28.9814C196.66 23.4944 236.238 22.6962 278.146 26.6109C315.833 30.1283 354.083 37.285 391.834 47.8807C458.963 66.7748 518.605 95.9908 564.307 132.371C566.819 134.37 569.322 136.42 571.743 138.459C589.966 153.816 607.22 171.428 626.039 193.886C631.008 199.805 635.951 205.888 640.733 211.769C652.534 226.287 664.739 241.299 678.532 255.393C679.433 256.311 680.346 257.235 681.255 258.14C721.776 298.361 775.165 325.505 835.651 336.639C895.361 347.63 963.986 343.756 1039.62 325.125C1045.95 323.563 1052.43 321.866 1058.88 320.079C1122.65 302.408 1183.46 275.434 1242.26 249.346C1245.36 247.971 1248.45 246.598 1251.55 245.226C1259.46 241.731 1267.4 238.193 1275.09 234.772C1336.83 207.278 1395.15 181.309 1460.4 165.78C1481.47 160.736 1500.18 157.907 1517.59 157.128C1539.39 156.154 1559.43 158.495 1577.16 164.083C1592.39 168.899 1607.62 176.264 1623.72 186.602C1637.92 195.723 1650.96 205.925 1663.58 215.79C1670.97 221.565 1677.95 227.02 1684.99 232.143C1751.52 280.544 1820.8 332.642 1896.8 391.415L1896.59 391.528Z" fill="#FFE492"/>
<path d="M1893.76 389.885C1824.4 335.12 1754.46 280.93 1685.9 228.823C1678.92 223.549 1672 217.883 1664.68 211.885C1640.86 192.374 1613.87 170.261 1580.14 159.749C1547.99 149.749 1509.8 151.333 1463.38 164.591C1408.19 180.302 1359.34 203.404 1307.63 227.861C1291.44 235.52 1274.69 243.442 1257.8 251.083C1228.32 264.45 1196.43 278.595 1163 291.477C1127.2 305.275 1094.49 315.703 1063 323.362C1056.39 324.971 1049.73 326.485 1043.21 327.86C1007.13 335.465 971.822 339.793 938.268 340.724C901.124 341.752 866.269 338.594 834.669 331.329C776.314 317.748 725.311 289.332 683.08 246.869C682.18 245.962 681.271 245.035 680.376 244.116C667.277 230.64 655.286 216.422 643.691 202.672C638.233 196.2 632.59 189.507 626.913 182.993C607.383 160.549 589.793 143.098 571.556 128.075C569.101 126.053 566.57 124.026 564.03 122.048C517.791 86.0372 457.747 57.2813 390.394 38.8822C309.389 16.7985 227.072 10.6893 158.604 21.6789C87.7807 33.1112 17.9323 71.6401 21.4669 123.16L21.1997 123.167C20.3528 110.826 23.7138 98.7262 31.1865 87.2016C38.1115 76.5257 48.4509 66.4826 61.9215 57.3527C74.612 48.7511 89.6536 41.23 106.627 34.9971C123.106 28.9471 140.571 24.4084 158.538 21.508C194.651 15.7126 234.272 14.604 276.303 18.2173C314.08 21.4645 352.499 28.3615 390.496 38.7201C457.889 57.1296 517.967 85.903 564.233 121.931C566.773 123.911 569.309 125.94 571.764 127.961C590.009 142.993 607.607 160.451 627.146 182.902C632.823 189.418 638.465 196.111 643.924 202.584C655.519 216.333 667.507 230.549 680.601 244.021C681.493 244.941 682.404 245.866 683.302 246.773C725.501 289.203 776.458 317.596 834.757 331.163C894.808 344.968 966.861 343.769 1043.12 327.693C1049.64 326.318 1056.3 324.805 1062.91 323.198C1133.3 306.077 1197.71 278.114 1257.65 250.939C1274.54 243.297 1291.28 235.377 1307.48 227.718C1359.2 203.255 1408.05 180.149 1463.27 164.43C1509.76 151.152 1548.02 149.568 1580.25 159.59C1595.36 164.298 1610.35 171.678 1626.1 182.148C1639.99 191.38 1652.65 201.749 1664.89 211.775C1672.21 217.773 1679.13 223.438 1686.1 228.708C1754.67 280.817 1824.6 335.007 1893.97 389.773L1893.76 389.885Z" fill="#FFE492"/>
<path d="M1890.93 388.245C1822.62 333.177 1754.02 278.384 1687.02 225.388C1680.25 220.056 1673.54 214.29 1666.44 208.186C1643.21 188.22 1616.87 165.589 1583.23 155.255C1550.7 145.273 1512.43 147.884 1466.26 163.235C1417.89 179.295 1373.44 201.971 1330.46 223.903C1308.91 234.9 1286.62 246.271 1263.91 256.793C1228.07 273.418 1197.91 286.1 1169 296.706C1133.35 309.784 1099.99 319.524 1067.03 326.482C1060.26 327.911 1053.42 329.239 1046.7 330.43C1011.69 336.629 977.312 339.767 944.423 339.769C942.596 339.769 940.779 339.758 938.963 339.739C900.939 339.335 865.545 334.66 833.762 325.847C818.422 321.57 803.399 316.141 789.113 309.709C775.685 303.664 762.49 296.544 749.893 288.547C727.229 274.161 706.043 256.807 685.129 235.499C684.231 234.582 683.336 233.664 682.446 232.742C670.311 220.169 658.831 207.027 647.73 194.317C641.321 186.981 634.695 179.394 628.021 172.009C607.473 149.256 590.067 132.467 571.577 117.577C569.089 115.574 566.527 113.566 563.954 111.607C517.155 75.9541 456.676 47.6409 389.061 29.7247C307.537 8.14813 224.995 2.63853 156.64 14.2085C87.1445 26.0051 17.3869 64.8268 18.5223 116.202L18.2552 116.203C17.7262 92.2738 32.2628 69.519 60.2914 50.4001C72.9605 41.7583 87.922 34.1832 104.764 27.8806C121.152 21.7487 138.582 17.0914 156.574 14.0377C192.644 7.932 232.308 6.51495 274.462 9.82664C312.33 12.8019 350.92 19.441 389.16 29.5608C456.817 47.4893 517.331 75.8199 564.16 111.494C566.733 113.455 569.3 115.464 571.788 117.467C590.287 132.366 607.701 149.16 628.254 171.922C634.928 179.308 641.556 186.896 647.963 194.232C659.064 206.94 670.541 220.081 682.673 232.649C683.563 233.571 684.455 234.49 685.353 235.405C729.794 280.685 778.373 310.216 833.867 325.687C910.728 347 991.993 339.939 1046.63 330.262C1053.35 329.072 1060.18 327.745 1066.94 326.316C1142.76 310.312 1211.95 280.679 1263.75 256.652C1286.46 246.133 1308.74 234.762 1330.29 223.767C1373.29 201.831 1417.74 179.148 1466.14 163.081C1486.8 156.212 1505.5 151.994 1523.31 150.188C1545.26 147.961 1565.46 149.613 1583.34 155.1C1598.41 159.728 1613.26 167.167 1628.76 177.841C1642.41 187.246 1654.73 197.838 1666.65 208.084C1673.76 214.186 1680.46 219.95 1687.22 225.278C1754.22 278.274 1822.83 333.067 1891.14 388.135L1890.93 388.245Z" fill="#FFE492"/>
<path d="M1888.1 386.601L1688.13 221.951C1681.6 216.574 1675.11 210.723 1668.25 204.53C1645.59 184.092 1619.91 160.927 1586.33 150.764C1553.86 140.937 1514.43 144.677 1469.15 161.882C1425.62 178.422 1385.91 200.416 1347.52 221.688C1322.49 235.553 1296.61 249.89 1270.02 262.507C1190.09 300.431 1120.24 322.83 1050.2 333.001C1021.14 337.219 992.479 339.342 964.68 339.342C956.254 339.342 947.913 339.147 939.66 338.756C900.739 336.916 864.805 330.728 832.859 320.368C803.252 310.764 776.166 297.207 750.064 278.919C729.219 264.316 709.238 246.907 687.183 224.132C675.543 212.112 664.271 199.623 653.37 187.546C628.7 160.216 603.191 131.955 571.609 107.083C523.166 68.9336 459.58 39.0168 387.725 20.5655C305.685 -0.502112 222.919 -5.41387 154.677 6.73655C88.6059 18.5 16.8952 55.5944 15.5754 109.244L15.3082 109.24C15.8987 85.2602 30.8895 62.5089 58.659 43.4458C83.7674 26.2093 117.842 13.1124 154.607 6.56748C190.637 0.153255 230.344 -1.57405 272.618 1.4361C310.577 4.13774 349.338 10.5206 387.824 20.4034C423.378 29.5332 457.146 41.5511 488.191 56.1243C519.495 70.8195 547.63 87.9253 571.812 106.967C603.407 131.849 628.924 160.117 653.6 187.454C664.501 199.529 675.772 212.016 687.41 224.034C719.588 257.266 765.215 298.228 832.98 320.207C910.693 345.413 993.967 340.982 1050.14 332.827C1120.15 322.663 1189.97 300.273 1269.86 262.362C1296.44 249.75 1322.32 235.414 1347.34 221.552C1385.75 200.277 1425.46 178.277 1469.02 161.729C1514.38 144.494 1553.89 140.75 1586.44 150.603C1601.47 155.154 1616.19 162.658 1631.44 173.546C1644.85 183.131 1656.86 193.957 1668.46 204.425C1675.33 210.618 1681.81 216.466 1688.34 221.841L1888.31 386.492L1888.1 386.601Z" fill="#FFE492"/>
<path d="M1886.49 373.943C1835.57 328.099 1791.88 290.898 1749 256.873C1728.18 240.344 1706.92 224.075 1685.81 208.517C1679.43 203.811 1673.1 198.805 1666.4 193.505C1649.57 180.183 1632.16 166.408 1612.13 156.186C1601.38 150.686 1591.03 146.749 1580.48 144.148C1548.12 136.087 1510.15 141.417 1467.63 159.992C1445.63 169.591 1425.59 180.514 1408.89 189.933C1391.21 199.905 1373.77 210.902 1356.91 221.536C1332.67 236.822 1307.6 252.627 1280.65 266.202C1264.26 274.486 1247.64 281.889 1231.25 288.205C1198.47 300.842 1163.29 311.255 1126.67 319.154C1104.05 323.98 1081.32 327.628 1059.12 329.995C1039.98 332.028 1020.81 333.201 1002.13 333.481C974.175 333.903 946.94 332.294 921.18 328.695C893.79 324.867 867.869 318.758 844.139 310.535C822.98 303.202 802.993 293.969 783.038 282.307C745.853 260.593 716.195 235.485 694.512 216.036C683.86 206.438 673.459 196.649 663.4 187.183C634.436 159.921 607.078 134.172 572.843 111.235C544.921 92.6516 513.064 76.6143 478.148 63.5663C451.316 53.5388 422.134 45.338 391.412 39.1905C384.094 37.7281 376.638 36.3651 369.256 35.1433C337.473 29.8916 301.694 26.4719 262.915 24.9781C223.817 23.4373 189.991 24.7707 159.51 29.0585C142.277 31.4638 125.582 35.2374 109.881 40.2729C54.4486 58.0515 18.8537 87.8967 14.6645 120.111L14.3306 120.092C15.4473 111.504 18.7255 103.045 24.0715 94.9472C29.1504 87.2553 36.1262 79.8371 44.8038 72.8983C61.1999 59.791 83.6527 48.4406 109.734 40.0759C125.459 35.0317 142.181 31.2529 159.44 28.8441C189.954 24.5528 223.807 23.2177 262.936 24.7602C301.737 26.254 337.535 29.6772 369.338 34.9324C376.728 36.156 384.188 37.519 391.511 38.9831C422.257 45.1341 451.463 53.3419 478.316 63.378C513.257 76.4348 545.141 92.4861 573.076 111.082C607.332 134.032 634.695 159.788 663.67 187.057C673.726 196.524 684.127 206.311 694.776 215.908C716.449 235.347 746.094 260.443 783.257 282.143C803.19 293.793 823.156 303.017 844.292 310.341C890.733 326.434 943.833 334.147 1002.12 333.263C1020.78 332.983 1039.94 331.81 1059.06 329.779C1081.25 327.412 1103.96 323.767 1126.57 318.945C1163.16 311.051 1198.32 300.645 1231.08 288.015C1247.46 281.704 1264.07 274.305 1280.45 266.027C1307.38 252.46 1332.44 236.658 1356.67 221.377C1373.54 210.741 1390.98 199.741 1408.67 189.766C1425.37 180.342 1445.42 169.415 1467.45 159.809C1486.38 151.539 1504.71 145.825 1521.93 142.825C1543.09 139.141 1562.83 139.517 1580.6 143.944C1591.18 146.554 1601.56 150.502 1612.34 156.013C1632.4 166.251 1649.81 180.035 1666.66 193.365C1673.35 198.664 1679.68 203.67 1686.06 208.373C1707.18 223.932 1728.44 240.203 1749.26 256.735C1792.14 290.764 1835.83 327.968 1886.76 373.816L1886.49 373.943Z" fill="#FFE492"/>
<path d="M1884.88 361.283C1837.66 314.663 1793.35 275.651 1749.41 242.02C1727.98 225.593 1705.81 209.801 1683.49 195.085C1677.57 191.181 1671.73 187.123 1665.54 182.828C1647.01 169.967 1627.85 156.668 1606.39 147.466C1595.55 142.8 1585.17 139.551 1574.64 137.533C1534.33 129.801 1493.37 144.449 1466.12 158.099C1446.8 167.741 1429.16 178.643 1411.3 189.898C1395.66 199.749 1380.95 210.347 1365.37 221.565C1342.25 238.217 1318.35 255.436 1291.29 269.894C1275.24 278.52 1258.49 285.979 1241.5 292.062C1209.85 303.395 1175.2 312.195 1135.55 318.968C1113.37 322.758 1090.65 325.458 1068.02 326.99C1048.93 328.267 1029.88 328.724 1011.39 328.342C983.874 327.781 956.981 325.257 931.45 320.842C904.637 316.204 879.053 309.427 855.411 300.7C834.698 293.055 814.698 283.57 794.267 271.704C757.163 250.183 725.378 226.325 701.835 207.943C693.12 201.138 684.544 194.292 676.248 187.669C643.213 161.294 612.01 136.379 574.078 115.39C545.729 99.7031 513.901 86.4389 479.484 75.967C453.443 68.0433 425.842 62.1067 395.107 57.8172C388.014 56.8289 380.797 55.9382 373.661 55.1695C342.317 51.8108 308.865 50.5402 268.392 49.2259C239.217 48.2307 201.025 47.5753 164.335 51.3785C146.958 53.1459 130.161 56.2153 114.407 60.4979C58.937 75.58 21.3091 101.927 13.7482 130.979L13.3528 130.936C15.3565 123.232 19.4175 115.676 25.4154 108.476C31.1328 101.615 38.6456 95.0371 47.7427 88.9192C65.0312 77.2969 88.029 67.3845 114.252 60.2556C130.036 55.9643 146.865 52.8897 164.271 51.1188C200.996 47.3104 239.217 47.9675 268.41 48.9627C308.897 50.277 342.36 51.5476 373.726 54.9081C380.867 55.6785 388.088 56.5692 395.19 57.5575C425.954 61.8522 453.582 67.7941 479.652 75.7264C514.104 86.2088 545.958 99.4835 574.337 115.186C612.296 136.191 643.512 161.112 676.558 187.498C684.851 194.119 693.427 200.966 702.142 207.769C725.68 226.143 757.451 249.993 794.534 271.503C814.941 283.357 834.92 292.832 855.609 300.468C902.096 317.628 954.515 326.916 1011.4 328.077C1029.88 328.457 1048.91 328.002 1067.98 326.725C1090.59 325.194 1113.29 322.498 1135.45 318.71C1175.06 311.944 1209.69 303.151 1241.31 291.828C1258.27 285.752 1275.01 278.304 1291.04 269.687C1318.07 255.241 1341.97 238.029 1365.08 221.385C1380.66 210.162 1395.37 199.563 1411.02 189.706C1428.9 178.445 1446.54 167.539 1465.87 157.886C1483.55 149.037 1500.98 142.671 1517.68 138.962C1537.94 134.465 1557.14 133.899 1574.76 137.277C1585.33 139.304 1595.75 142.563 1606.61 147.243C1628.11 156.462 1647.29 169.773 1665.84 182.645C1672.02 186.938 1677.87 190.994 1683.78 194.897C1706.1 209.618 1728.29 225.415 1749.72 241.848C1793.67 275.488 1837.99 314.506 1885.21 361.137L1884.88 361.283Z" fill="#FFE492"/>
<path d="M1883.26 348.621C1839.08 300.592 1795.43 260.864 1749.83 227.167C1727.78 210.84 1704.68 195.528 1681.18 181.652C1676.16 178.686 1670.98 175.538 1665.98 172.495C1645.33 159.921 1623.97 146.92 1600.65 138.747C1589.7 134.884 1579.29 132.322 1568.81 130.915C1528.58 125.514 1489.93 141.685 1464.6 156.201C1447.43 166 1431.73 177.106 1416.55 187.849L1413.71 189.86C1399.93 199.605 1387 210.293 1373.31 221.61C1351.51 239.631 1328.97 258.264 1301.93 273.585C1286.2 282.565 1269.31 290.079 1251.74 295.918C1221.1 306.099 1186.99 313.363 1144.43 318.781C1122.41 321.582 1099.7 323.332 1076.93 323.98C1057.88 324.501 1038.95 324.24 1020.64 323.199C965.199 320.064 913.4 309.184 866.678 290.863C846.48 282.943 826.467 273.208 805.496 261.098C770.009 240.647 738.445 219.627 709.161 199.849C705.234 197.198 701.349 194.564 697.494 191.952C657.496 164.85 619.718 139.25 575.32 119.548C546.335 106.684 514.539 96.1949 480.82 88.3689C456.064 82.624 429.235 78.7231 398.805 76.4433C391.947 75.9326 384.971 75.5125 378.07 75.1953C360.709 74.411 342.296 74.2837 322.801 74.1495C307.142 74.0415 290.952 73.9299 273.866 73.475C240.868 72.5216 203.47 71.4426 169.155 73.7016C151.45 74.8676 134.551 77.2311 118.927 80.7276C63.4792 93.1377 23.8154 115.99 12.8267 141.858L12.3752 141.776C15.2713 134.956 20.1124 128.303 26.7623 122.002C33.1209 115.976 41.168 110.235 50.6792 104.938C68.8707 94.8075 92.4189 86.3365 118.772 80.4383C134.431 76.9331 151.364 74.5644 169.104 73.3965C203.454 71.1359 240.871 72.2165 273.882 73.17C290.957 73.6231 307.147 73.7364 322.801 73.8445C342.304 73.9787 360.723 74.1059 378.099 74.892C385.006 75.211 391.989 75.6311 398.853 76.1418C429.321 78.4233 456.182 82.3294 480.972 88.083C514.732 95.9178 546.562 106.419 575.579 119.297C620.018 139.017 657.814 164.628 697.828 191.742C701.683 194.355 705.57 196.987 709.495 199.64C738.774 219.414 770.326 240.43 805.804 260.873C826.752 272.97 846.745 282.695 866.918 290.605C913.579 308.903 965.311 319.767 1020.68 322.899C1038.97 323.938 1057.88 324.2 1076.9 323.678C1099.66 323.03 1122.35 321.282 1144.34 318.484C1186.86 313.072 1220.92 305.816 1251.52 295.649C1269.06 289.823 1285.92 282.322 1301.62 273.358C1328.63 258.056 1351.15 239.434 1372.94 221.424C1386.63 210.101 1399.57 199.408 1413.36 189.656L1416.21 187.645C1431.39 176.897 1447.1 165.784 1464.29 155.974C1489.7 141.412 1528.48 125.193 1568.9 130.619C1579.43 132.033 1589.88 134.604 1600.87 138.482C1624.24 146.672 1645.62 159.687 1666.3 172.275C1671.3 175.318 1676.47 178.466 1681.49 181.431C1705 195.314 1728.11 210.635 1750.17 226.97C1795.8 260.681 1839.46 300.423 1883.65 348.467L1883.26 348.621Z" fill="#FFE492"/>
<path d="M1881.65 335.957C1841.08 287.204 1796.87 245.604 1750.25 212.316C1727.58 196.092 1703.57 181.258 1678.87 168.224C1675.3 166.341 1671.65 164.387 1668.12 162.498C1644.77 150.016 1620.63 137.108 1594.93 130.031C1583.89 126.962 1573.44 125.088 1562.98 124.3C1522.86 121.281 1486.52 138.95 1463.09 154.304C1448.54 163.79 1435.41 174.338 1422.71 184.54C1420.52 186.306 1418.32 188.068 1416.12 189.823C1404.04 199.465 1392.75 210.237 1380.8 221.64C1360.47 241.025 1339.45 261.07 1312.57 277.279C1296.79 286.798 1280.24 294.157 1261.98 299.78C1223.78 311.54 1185.6 315.892 1153.3 318.601C1131.45 320.431 1108.75 321.232 1085.83 320.978C1066.85 320.743 1048.02 319.761 1029.89 318.064C976.115 313.042 924.995 300.583 877.95 281.032C858.374 272.899 838.35 262.912 816.728 250.5C794.887 237.992 774.534 225.957 754.849 214.317C741.472 206.406 728.835 198.934 716.495 191.765C669.847 164.665 627.119 140.838 576.573 123.711C546.966 113.68 515.202 105.962 482.164 100.773C458.485 97.0538 433.173 95.2428 402.51 95.0702C395.895 95.0388 389.157 95.0894 382.486 95.2219C372.352 95.4362 361.869 95.8842 350.773 96.36C329.48 97.2716 305.341 98.3052 279.34 97.7266C269.439 97.5052 259.337 97.1932 249.567 96.8899C224.437 96.1108 198.452 95.3055 173.972 96.0254C155.994 96.5553 138.992 98.2146 123.442 100.958C68.0877 110.728 26.3907 130.087 11.8995 152.744L11.4053 152.61C15.1991 146.677 20.8203 140.928 28.1113 135.523C35.1138 130.333 43.6952 125.43 53.6125 120.952C72.7231 112.324 96.819 105.295 123.298 100.622C138.885 97.8712 155.925 96.2067 173.942 95.6768C198.45 94.9552 224.445 95.7622 249.589 96.5413C259.356 96.8446 269.458 97.1566 279.356 97.378C305.333 97.9566 329.453 96.9248 350.736 96.0132C361.837 95.5373 372.323 95.0894 382.467 94.875C389.147 94.7425 395.89 94.692 402.513 94.7234C433.219 94.8942 458.568 96.7104 482.287 100.435C515.365 105.631 547.171 113.358 576.816 123.403C599.649 131.138 622.785 140.939 647.549 153.363C669.719 164.485 691.285 176.655 716.847 191.505C729.188 198.676 741.825 206.148 755.205 214.059C774.887 225.697 795.24 237.733 817.075 250.239C838.676 262.638 858.679 272.615 878.23 280.739C925.212 300.264 976.26 312.706 1029.96 317.72C1048.07 319.416 1066.87 320.396 1085.83 320.631C1108.73 320.886 1131.4 320.086 1153.22 318.255C1185.49 315.552 1223.61 311.205 1261.75 299.466C1279.96 293.859 1296.46 286.519 1312.21 277.025C1339.04 260.843 1360.04 240.814 1380.35 221.444C1392.31 210.035 1403.61 199.258 1415.7 189.605C1417.9 187.85 1420.1 186.088 1422.29 184.324C1435 174.115 1448.14 163.559 1462.7 154.062C1477.95 144.073 1493.58 136.388 1509.18 131.222C1527.66 125.102 1545.77 122.658 1563.03 123.959C1573.54 124.75 1584.04 126.632 1595.12 129.714C1620.9 136.81 1645.07 149.734 1668.44 162.231C1671.98 164.121 1675.63 166.075 1679.19 167.955C1703.91 181 1727.94 195.848 1750.63 212.084C1775.38 229.76 1799.63 249.899 1822.69 271.941C1843.07 291.422 1863.06 312.906 1882.1 335.793L1881.65 335.957Z" fill="#FFE492"/>
<path d="M1880.03 323.292C1842.49 273.14 1798.96 230.807 1750.67 197.465C1727.38 181.344 1702.45 166.989 1676.56 154.795C1675.33 154.214 1674.1 153.634 1672.87 153.052C1645.95 140.356 1618.12 127.227 1589.21 121.317C1578.01 119.027 1567.53 117.84 1557.17 117.686C1517.21 117.097 1483.14 136.242 1461.59 152.405C1448.91 161.861 1437.65 172.225 1426.77 182.247C1424.08 184.725 1421.3 187.288 1418.55 189.784C1408.08 199.29 1398.36 210.098 1388.06 221.543C1369.33 242.359 1349.96 263.883 1323.22 280.972C1307.75 290.858 1291.07 298.273 1272.22 303.641C1235.09 314.216 1197.38 316.992 1162.17 318.418C1140.46 319.297 1117.77 319.147 1094.73 317.974C1075.81 316.98 1057.11 315.281 1039.14 312.924C987.197 306.127 936.756 292.089 889.224 271.199C870.188 262.834 850.723 252.889 827.968 239.9C784.721 215.282 752.608 197.942 723.844 183.68C666.636 155.312 622.972 138.623 577.85 127.876C547.641 120.681 515.91 115.736 483.532 113.177C461.068 111.403 437.229 111.561 406.237 113.697C399.887 114.139 393.389 114.66 386.924 115.248C380.816 115.811 374.613 116.456 368.043 117.137C343.787 119.656 316.292 122.511 284.825 121.978C268.239 121.697 251.298 120.928 234.916 120.186C216.297 119.342 197.044 118.469 178.792 118.35C160.491 118.232 143.384 119.187 127.96 121.191C72.7898 128.357 29.0544 144.227 10.9698 163.642L10.4568 163.438C15.1536 158.394 21.555 153.55 29.4819 149.041C37.1336 144.687 46.244 140.624 56.562 136.962C76.605 129.847 101.254 124.259 127.843 120.806C143.309 118.798 160.453 117.84 178.797 117.958C197.066 118.077 216.329 118.95 234.956 119.795C251.333 120.538 268.266 121.306 284.839 121.587C316.25 122.119 343.715 119.267 367.944 116.752C374.516 116.069 380.725 115.426 386.835 114.861C393.309 114.273 399.812 113.752 406.168 113.308C437.207 111.171 461.087 111.011 483.599 112.79C516.022 115.352 547.799 120.304 578.051 127.51C623.234 138.271 666.943 154.978 724.202 183.369C752.976 197.637 785.101 214.982 828.358 239.607C851.097 252.585 870.541 262.52 889.555 270.876C937.023 291.736 987.39 305.755 1039.26 312.543C1057.2 314.896 1075.88 316.592 1094.77 317.585C1117.78 318.756 1140.45 318.906 1162.13 318.03C1197.29 316.606 1234.93 313.836 1271.98 303.286C1290.76 297.938 1307.38 290.548 1322.8 280.696C1349.48 263.645 1368.83 242.143 1387.54 221.349C1397.84 209.898 1407.57 199.081 1418.05 189.56C1420.8 187.066 1423.58 184.504 1426.28 182.025C1437.17 171.995 1448.43 161.624 1461.13 152.152C1475.19 141.604 1489.94 133.26 1504.95 127.351C1522.53 120.43 1540.11 117.05 1557.18 117.299C1567.6 117.453 1578.13 118.647 1589.38 120.947C1618.39 126.879 1646.26 140.024 1673.22 152.74C1674.45 153.322 1675.68 153.904 1676.91 154.483C1702.83 166.691 1727.79 181.063 1751.1 197.202C1799.44 230.573 1843 272.94 1880.57 323.126L1880.03 323.292Z" fill="#FFE492"/>
<path d="M1175.47 318.237C1173.97 318.237 1172.49 318.236 1171.04 318.23C1149.44 318.171 1126.75 317.073 1103.62 314.964C1084.77 313.212 1066.19 310.795 1048.39 307.781C1022.95 303.483 997.427 297.306 972.514 289.422C948.455 281.809 924.226 272.369 900.496 261.362C877.244 250.578 855.526 238.562 839.202 229.297C801.008 207.681 764.668 189.613 731.191 175.594C676.972 152.89 628.655 139.049 579.13 132.037C549.252 127.806 517.198 125.575 486.334 125.575C485.856 125.575 485.381 125.575 484.902 125.577C458.389 125.636 433.216 128.85 409.967 132.316C403.916 133.224 397.656 134.215 391.361 135.266C387.912 135.849 384.458 136.448 380.803 137.083C355.024 141.564 325.804 146.641 290.305 146.225C268.686 145.97 246.604 144.509 225.249 143.096C211.461 142.183 197.205 141.24 183.606 140.67C164.912 139.887 147.709 140.138 132.47 141.419C77.5936 146.028 31.8196 158.41 10.0213 174.543L9.51904 174.255C20.7 165.981 37.5183 158.818 59.5063 152.961C80.5057 147.37 105.708 143.228 132.384 140.989C147.664 139.706 164.912 139.451 183.649 140.237C197.261 140.807 211.525 141.752 225.319 142.665C246.66 144.079 268.728 145.54 290.318 145.792C325.726 146.209 354.896 141.139 380.632 136.666C384.289 136.03 387.744 135.43 391.196 134.848C397.496 133.797 403.761 132.804 409.817 131.895C433.106 128.425 458.322 125.206 484.9 125.145C516.255 125.073 548.884 127.311 579.272 131.615C604.832 135.235 629.611 140.563 655.022 147.905C679.494 154.976 704.528 163.914 731.549 175.232C765.052 189.261 801.419 207.343 839.638 228.973C855.948 238.232 877.65 250.24 900.878 261.011C949.03 283.346 998.715 298.941 1048.55 307.365C1066.33 310.375 1084.89 312.789 1103.71 314.539C1126.81 316.644 1149.46 317.742 1171.04 317.8C1204.79 317.89 1243.98 317.148 1282.21 307.1C1301.56 302.014 1318.3 294.576 1333.38 284.364C1359.88 266.429 1377.44 243.409 1394.43 221.145C1403.17 209.694 1411.42 198.877 1420.4 189.514C1423.27 186.514 1426.17 183.424 1428.98 180.434C1438.46 170.335 1448.26 159.895 1459.55 150.244C1472.45 139.141 1486.3 130.135 1500.7 123.477C1517.4 115.757 1534.43 111.438 1551.3 110.64C1561.72 110.146 1572.29 110.65 1583.63 112.18C1613.93 116.269 1643.96 128.15 1674.62 141.008C1701.35 152.219 1727.96 166.503 1751.56 182.317C1777.78 199.832 1802.42 220.38 1824.78 243.39C1844.71 263.889 1862.96 286.454 1879.03 310.458L1878.41 310.633C1843.9 259.082 1801.07 216.012 1751.09 182.622C1727.52 166.83 1700.95 152.567 1674.26 141.376C1643.65 128.54 1613.68 116.683 1583.49 112.607C1572.22 111.086 1561.71 110.586 1551.35 111.075C1520.34 112.545 1487.93 126.548 1460.08 150.509C1448.81 160.142 1439.02 170.574 1429.55 180.663C1426.74 183.654 1423.84 186.746 1420.96 189.745C1412.01 199.091 1403.76 209.9 1395.03 221.341C1386.69 232.264 1378.08 243.56 1368.18 254.419C1356.97 266.73 1345.75 276.623 1333.87 284.667C1318.71 294.925 1301.9 302.395 1282.46 307.506C1265.32 312.013 1246.89 314.992 1226.13 316.616C1208.55 317.985 1190.89 318.237 1175.47 318.237Z" fill="#FFE492"/>
<path d="M1218.31 319.112C1204.69 319.112 1191.6 318.582 1179.89 318.045C1158.37 317.058 1135.7 315.01 1112.51 311.957C1093.74 309.449 1075.27 306.315 1057.62 302.639C1009.3 292.594 961.581 275.873 911.757 251.525C890.028 240.909 869.545 229.485 850.431 218.696C812.697 197.458 775.053 180.237 738.539 167.51C684.838 148.791 634.594 138.841 580.418 136.195C549.549 134.687 516.997 135.302 486.278 137.973C460.566 140.207 436.326 145.6 413.697 150.93C408.035 152.271 402.013 153.735 395.802 155.281C394.25 155.669 392.684 156.065 391.097 156.464C365.035 163.039 335.545 170.478 297.698 170.478C297.059 170.478 296.423 170.476 295.779 170.471C270.174 170.302 244.031 167.917 218.747 165.61C208.723 164.695 198.356 163.75 188.41 162.985C168.981 161.493 152.155 161.052 136.966 161.641C81.724 163.785 35.0952 172.458 9.04091 185.441L8.59473 185.06C21.4749 178.642 40.0992 173.07 62.4479 168.946C84.4305 164.89 110.183 162.199 136.921 161.162C152.152 160.571 169.021 161.012 188.493 162.507C198.45 163.272 208.819 164.219 218.846 165.132C244.106 167.436 270.225 169.819 295.782 169.988C334.417 170.246 364.388 162.683 390.827 156.013C392.411 155.614 393.98 155.218 395.532 154.827C401.749 153.28 407.774 151.816 413.44 150.475C436.107 145.135 460.392 139.735 486.174 137.493C516.941 134.82 549.546 134.203 580.466 135.712C607.314 137.023 632.911 140.118 658.719 145.173C685.3 150.379 711.52 157.545 738.878 167.082C775.437 179.827 813.129 197.069 850.904 218.328C870.009 229.114 890.48 240.531 912.19 251.137C961.947 275.451 1009.59 292.148 1057.84 302.177C1075.46 305.846 1093.9 308.976 1112.65 311.481C1135.8 314.531 1158.44 316.577 1179.94 317.56C1216.1 319.216 1254.58 320.067 1292.43 310.904C1312.35 306.081 1329.21 298.597 1343.96 288.022C1370.24 269.185 1386.6 243.492 1401.04 220.822C1408.3 209.416 1415.16 198.643 1422.73 189.459C1425.46 186.146 1428.21 182.721 1430.87 179.409C1439.18 169.047 1447.78 158.333 1457.96 148.326C1469.73 136.669 1482.68 127.001 1496.45 119.589C1512.27 111.078 1528.74 105.821 1545.42 103.969C1555.84 102.81 1566.45 102.625 1577.86 103.399C1609.72 105.565 1642.08 116.271 1672.32 127.518C1700.23 137.903 1727.79 151.701 1752.02 167.419C1778.97 184.852 1803.8 205.606 1825.82 229.1C1845.51 250.11 1862.89 273.215 1877.48 297.777L1876.8 297.95C1845.78 245.74 1802.46 200.721 1751.5 167.757C1727.32 152.068 1699.82 138.297 1671.96 127.933C1641.79 116.712 1609.51 106.032 1577.78 103.875C1566.45 103.104 1555.9 103.289 1545.55 104.439C1514.76 107.861 1483.87 123.539 1458.57 148.588C1448.42 158.573 1439.83 169.277 1431.52 179.629C1428.86 182.942 1426.12 186.367 1423.38 189.684C1415.83 198.847 1408.98 209.61 1401.72 221.004C1387.26 243.708 1370.88 269.443 1344.51 288.343C1329.67 298.975 1312.72 306.501 1292.69 311.352C1275.31 315.559 1256.56 317.996 1235.36 318.796C1229.63 319.023 1223.93 319.112 1218.31 319.112Z" fill="#FFE492"/>
<path d="M1245.2 320.998C1245 320.998 1244.81 320.998 1244.62 320.998C1225.36 320.967 1206.46 319.429 1188.75 317.857C1167.26 315.95 1144.6 312.951 1121.4 308.945C1102.71 305.684 1084.36 301.83 1066.86 297.494C1020.47 286.013 974.763 268.281 923.026 241.688C904.394 232.114 886.058 221.804 868.323 211.836C866.106 210.588 863.886 209.342 861.666 208.096C823.736 186.863 784.785 170.487 745.899 159.426C692.65 144.281 638.946 138.041 581.719 140.351C550.34 141.618 517.817 145.081 487.667 150.366C463.879 154.537 442.682 161.228 417.44 169.542C412.323 171.235 406.86 173.061 400.25 175.293L399.881 175.418C387.129 179.751 372.675 184.661 356.464 188.395C337.845 192.682 319.781 194.746 301.259 194.722C272.375 194.675 242.898 191.168 214.394 187.774C207.41 186.943 200.186 186.083 193.213 185.306C173.216 183.08 156.288 181.956 141.463 181.871C86.8748 181.557 38.2448 186.835 8.04411 196.348L7.69678 195.877C22.4899 191.217 42.4447 187.434 65.4025 184.938C88.403 182.437 114.708 181.196 141.471 181.349C156.339 181.435 173.309 182.561 193.349 184.792C200.328 185.569 207.552 186.428 214.539 187.26C243.008 190.648 272.447 194.152 301.261 194.199C301.39 194.199 301.521 194.199 301.649 194.199C342.865 194.199 374.265 183.532 399.513 174.954L399.884 174.829C406.496 172.596 411.96 170.769 417.079 169.077C442.364 160.749 463.598 154.045 487.462 149.862C517.662 144.567 550.238 141.098 581.671 139.83C609.675 138.7 636.09 139.561 662.43 142.465C690.814 145.594 718.223 150.985 746.22 158.948C785.181 170.03 824.198 186.432 862.189 207.7C864.409 208.946 866.63 210.194 868.847 211.442C886.574 221.407 904.904 231.713 923.521 241.281C975.191 267.84 1020.83 285.547 1067.15 297.009C1084.62 301.341 1102.95 305.187 1121.6 308.445C1144.77 312.445 1167.4 315.44 1188.86 317.343C1227.29 320.756 1264.92 323.123 1302.68 314.729C1323.16 310.172 1340.13 302.641 1354.55 291.702C1380.6 271.942 1394.83 244.561 1407.39 220.401C1413.26 209.091 1418.82 198.406 1425.08 189.428C1427.49 185.974 1429.91 182.4 1432.24 178.944C1439.55 168.138 1447.11 156.965 1456.38 146.43C1467.05 134.214 1479.11 123.881 1492.21 115.72C1507.16 106.42 1523.08 100.229 1539.54 97.3214C1549.75 95.5191 1560.17 94.6406 1571.36 94.6406C1571.6 94.6406 1571.85 94.6406 1572.09 94.6424C1606.89 94.7609 1642.71 105.076 1670.02 114.049C1699.12 123.609 1727.64 136.919 1752.49 152.539C1780.17 169.893 1805.19 190.85 1826.87 214.832C1846.31 236.353 1862.83 260 1875.94 285.12L1875.18 285.289C1855.67 247.913 1818.44 194.608 1751.93 152.918C1727.14 137.332 1698.69 124.054 1669.66 114.516C1642.43 105.567 1606.72 95.282 1572.09 95.1653C1560.68 95.1217 1550.11 95.9967 1539.75 97.8268C1509.25 103.214 1479.89 120.568 1457.07 146.69C1447.83 157.2 1440.28 168.361 1432.98 179.155C1430.64 182.613 1428.22 186.188 1425.81 189.644C1419.56 198.6 1414.01 209.27 1408.15 220.569C1395.57 244.772 1381.31 272.205 1355.16 292.042C1340.65 303.054 1323.56 310.636 1302.93 315.222C1285.45 319.107 1266.56 320.998 1245.2 320.998Z" fill="#FFE492"/>
<path d="M1266.58 323.452C1262.43 323.452 1258.2 323.365 1253.86 323.191C1234.87 322.429 1216.41 320.144 1197.6 317.669C1175.8 314.8 1153.78 310.962 1130.28 305.935C1111.7 301.923 1093.47 297.352 1076.1 292.348C1032.06 279.673 988.32 261.015 934.296 231.851C920.878 224.609 907.467 217.013 894.496 209.666C887.434 205.667 880.135 201.531 872.903 197.493C834.522 176.117 794.27 160.59 753.265 151.342C699.086 139.122 643.403 136.884 583.028 144.501C551.131 148.525 518.638 154.836 489.065 162.751C465.308 169.11 444.613 178.039 422.703 187.493L421.188 188.147C417.766 189.628 414.306 191.131 410.803 192.651C408.786 193.527 406.756 194.409 404.707 195.298C391.931 200.871 378.131 206.684 362.307 211.158C343.934 216.352 325.761 218.907 306.744 218.97C275.084 219.071 242.792 214.271 211.565 209.624C207.109 208.96 202.498 208.275 198.022 207.625C177.042 204.575 160.501 202.819 145.962 202.098C92.3093 199.436 41.6756 201.312 7.03989 207.245L6.81812 206.698C41.5447 200.749 92.2826 198.866 146.029 201.533C160.608 202.256 177.191 204.017 198.212 207.072C202.69 207.724 207.301 208.409 211.76 209.073C242.605 213.663 274.489 218.405 305.729 218.405C306.065 218.405 306.402 218.405 306.741 218.403C347.148 218.271 375.911 207.175 404.228 194.828C406.277 193.939 408.308 193.057 410.325 192.18C413.828 190.659 417.285 189.158 420.71 187.674L422.225 187.021C444.173 177.551 464.902 168.606 488.736 162.227C518.363 154.296 550.912 147.974 582.865 143.943C643.392 136.307 699.225 138.552 753.551 150.805C794.657 160.078 835.003 175.639 873.469 197.062C880.702 201.103 888.003 205.237 895.065 209.237C908.03 216.582 921.439 224.176 934.849 231.413C988.809 260.544 1032.48 279.177 1076.45 291.831C1093.79 296.826 1111.99 301.391 1130.56 305.396C1154.02 310.416 1176.01 314.249 1197.78 317.113C1230.83 321.462 1271.96 326.875 1312.92 318.537C1333.97 314.251 1351.06 306.672 1365.14 295.367C1390.94 274.66 1402.9 245.537 1413.45 219.843C1418.04 208.681 1422.37 198.138 1427.42 189.388C1429.39 185.979 1431.37 182.452 1433.28 179.041C1439.68 167.602 1446.3 155.774 1454.8 144.525C1464.39 131.74 1475.55 120.743 1487.97 111.84C1502.04 101.752 1517.41 94.6282 1533.66 90.6664C1544.08 88.1233 1554.77 86.5564 1566.32 85.8749C1581.8 84.9615 1598.27 85.9376 1616.68 88.8519C1632.25 91.32 1648.95 95.1511 1667.73 100.567C1698.01 109.301 1727.48 122.124 1752.95 137.649C1781.37 154.92 1806.59 176.085 1827.91 200.553C1847.11 222.587 1862.76 246.776 1874.4 272.452L1873.57 272.612C1848.98 218.405 1805.93 170.621 1752.35 138.064C1726.95 122.581 1697.57 109.794 1667.37 101.086C1626.92 89.4184 1594.84 84.7628 1566.4 86.4396C1554.92 87.1159 1544.31 88.6724 1533.96 91.1962C1495.31 100.621 1470 125.535 1455.58 144.774C1447.1 155.996 1440.48 167.81 1434.09 179.235C1432.18 182.648 1430.21 186.176 1428.24 189.587C1423.2 198.31 1418.87 208.841 1414.29 219.99C1403.72 245.739 1391.73 274.924 1365.81 295.724C1351.62 307.118 1334.4 314.758 1313.17 319.079C1298.79 322.007 1283.44 323.452 1266.58 323.452Z" fill="#FFE492"/>
<path d="M1285.11 326.266C1256.85 326.266 1229.69 321.53 1206.45 317.48C1184.59 313.669 1162.58 308.908 1139.17 302.924C1120.68 298.165 1102.57 292.877 1085.34 287.204C1033.68 270.217 987.628 245.834 945.559 222.014C936.97 217.151 928.292 212.138 919.903 207.291C908.255 200.56 896.208 193.6 884.137 186.893C845.181 165.306 803.629 150.624 760.636 143.257C705.02 133.728 647.351 135.49 584.337 148.646C551.892 155.419 519.431 164.579 490.462 175.134C468.119 183.274 449.214 193.551 429.2 204.431C427.782 205.201 426.36 205.975 424.931 206.749L424.156 207.171C419.291 209.818 414.26 212.555 409.16 215.302C396.94 221.913 383.483 228.751 367.917 233.974C349.849 240.038 331.633 243.062 312.223 243.219C278.154 243.496 243.43 237.248 209.853 231.205C207.499 230.781 205.156 230.359 202.823 229.943C180.68 225.979 164.527 223.63 150.453 222.323C98.1468 217.467 45.5039 215.94 6.02178 218.134L5.94165 217.526C45.4879 215.326 98.2082 216.855 150.584 221.718C164.698 223.028 180.886 225.383 203.069 229.354C205.402 229.77 207.745 230.192 210.101 230.617C243.615 236.648 278.272 242.881 312.21 242.609C354.361 242.268 384.046 228.092 408.562 214.831C413.662 212.084 418.693 209.348 423.558 206.702L424.333 206.28C425.762 205.504 427.183 204.732 428.602 203.962C448.65 193.063 467.587 182.769 490.005 174.601C519.028 164.026 551.55 154.851 584.051 148.066C613.926 141.829 641.987 138.228 669.834 137.057C700.897 135.752 731.525 137.639 760.871 142.668C804 150.058 845.676 164.781 884.741 186.427C896.82 193.138 908.869 200.099 920.52 206.833C928.909 211.68 937.582 216.691 946.168 221.552C988.194 245.346 1034.19 269.702 1085.75 286.658C1102.96 292.323 1121.05 297.604 1139.5 302.356C1162.88 308.331 1184.86 313.085 1206.69 316.89C1240.21 322.733 1281.92 330.005 1323.14 322.353C1344.77 318.337 1361.97 310.712 1375.71 299.04C1401.24 277.359 1410.8 246.444 1419.23 219.166C1422.62 208.206 1425.81 197.854 1429.76 189.354C1431.22 186.209 1432.68 182.961 1434.1 179.818C1439.64 167.526 1445.37 154.815 1453.2 142.626C1461.73 129.262 1471.99 117.598 1483.7 107.961C1496.92 97.0867 1511.74 89.0305 1527.76 84.0159C1538.16 80.76 1548.88 78.5029 1560.54 77.1137C1576.23 75.2435 1593.65 75.3062 1612.31 77.3002C1628.65 79.0467 1646.51 82.3392 1665.41 87.0888C1696.87 94.9968 1727.3 107.332 1753.4 122.761C1782.56 139.952 1807.97 161.321 1828.95 186.277C1847.89 208.823 1862.67 233.556 1872.86 259.788L1871.95 259.938C1850.37 204.354 1808.04 155.798 1752.77 123.214C1726.75 107.836 1696.43 95.5406 1665.08 87.6588C1624.43 77.4431 1590.29 74.1889 1560.7 77.715C1549.14 79.0937 1538.49 81.3352 1528.16 84.5667C1490.05 96.4975 1466.83 122.852 1454.07 142.861C1446.25 155.019 1440.53 167.713 1434.99 179.989C1433.58 183.131 1432.11 186.382 1430.65 189.53C1426.72 198.003 1423.53 208.34 1420.14 219.286C1416.09 232.409 1411.49 247.282 1404.82 261.226C1397.18 277.202 1387.9 289.693 1376.46 299.412C1369.84 305.031 1362.24 309.814 1353.85 313.628C1344.84 317.729 1334.59 320.863 1323.4 322.94C1310.59 325.32 1297.74 326.266 1285.11 326.266Z" fill="#FFE492"/>
<path d="M1301.8 329.352C1292.46 329.352 1282.68 328.759 1272.34 327.576C1251.98 325.245 1232.5 321.017 1215.3 317.289C1193.63 312.588 1171 306.74 1148.05 299.909C1129.68 294.412 1111.68 288.405 1094.57 282.054C1045.45 263.845 1003.12 239.633 956.823 212.174C952.709 209.734 948.53 207.245 944.49 204.836C928.581 195.356 912.131 185.553 895.372 176.291C855.769 154.451 812.918 140.617 768.007 135.172C711.357 128.303 649.999 134.229 585.646 152.788C552.624 162.312 520.192 174.318 491.859 187.51C470.526 197.444 452.965 209.155 434.373 221.555C432.484 222.815 430.587 224.078 428.679 225.347C423.932 228.509 418.818 231.903 413.616 235.3C402.708 242.448 389.414 250.593 373.53 256.786C355.75 263.719 337.489 267.214 317.708 267.467C281.496 267.932 244.635 260.11 208.987 252.545L207.63 252.257C190.175 248.555 171.711 244.815 154.949 242.544C103.856 235.622 50.6067 230.817 5.0144 229.013L5.07585 228.361C50.7162 230.167 104.014 234.976 155.152 241.904C171.963 244.182 190.459 247.928 207.939 251.635L209.297 251.923C244.867 259.47 281.654 267.273 317.69 266.811C359.306 266.278 388.048 251.128 412.908 234.834C418.11 231.439 423.218 228.045 427.966 224.885C429.874 223.618 431.77 222.353 433.659 221.094C452.284 208.674 469.877 196.942 491.28 186.975C519.666 173.756 552.159 161.728 585.243 152.187C615.435 143.481 645.147 137.481 673.547 134.358C705.997 130.79 737.841 130.846 768.194 134.525C813.276 139.991 856.285 153.874 896.021 175.789C912.794 185.06 929.251 194.866 945.169 204.351C949.209 206.758 953.387 209.247 957.502 211.687C1003.76 239.12 1046.03 263.306 1095.07 281.484C1112.16 287.825 1130.13 293.823 1148.47 299.313C1171.39 306.133 1193.98 311.972 1215.62 316.666C1249.54 324.025 1291.76 333.181 1333.39 326.166C1355.6 322.423 1372.9 314.752 1386.3 302.712C1411.55 280.027 1418.86 245.834 1424.73 218.36C1427.02 207.658 1429.18 197.55 1432.11 189.323C1433.03 186.73 1433.96 184.058 1434.86 181.473C1439.54 168.045 1444.38 154.158 1451.63 140.73C1462.83 119.833 1484.11 91.8792 1521.88 77.3723C1532.3 73.3669 1543.06 70.4177 1554.76 68.3575C1585.38 62.8897 1621.84 64.6589 1663.11 73.6126C1695.75 80.6944 1727.14 92.5416 1753.86 107.875C1783.76 124.984 1809.38 146.559 1830 172.005C1839.46 183.676 1847.82 196.142 1854.85 209.056C1861.57 221.391 1867.11 234.2 1871.32 247.128L1870.34 247.264C1851.78 190.299 1810.18 140.971 1753.2 108.364C1726.57 93.0889 1695.31 81.287 1662.79 74.2314C1621.71 65.3177 1585.45 63.5538 1555.03 68.9867C1543.41 71.0313 1532.73 73.9577 1522.38 77.9335C1484.88 92.3394 1463.72 120.151 1452.58 140.945C1445.34 154.338 1440.51 168.205 1435.84 181.616C1434.94 184.2 1434.01 186.874 1433.08 189.47C1430.17 197.669 1428.01 207.762 1425.72 218.449C1422.77 232.274 1419.42 247.943 1413.7 262.733C1407.12 279.727 1398.43 292.93 1387.11 303.095C1380.66 308.894 1373.11 313.785 1364.68 317.63C1355.59 321.773 1345.15 324.858 1333.64 326.797C1323.54 328.501 1312.99 329.352 1301.8 329.352Z" fill="#FFE492"/>
<path d="M1317.19 332.613C1306 332.613 1294.19 331.666 1281.58 329.768C1261.15 326.695 1241.49 321.595 1224.15 317.095C1202.31 311.43 1179.69 304.634 1156.93 296.893C1138.68 290.662 1120.81 283.938 1103.8 276.905C1057.02 257.566 1016.89 232.641 974.402 206.256C972.3 204.951 970.197 203.643 968.089 202.336C948.332 190.079 927.904 177.404 906.608 165.691C866.317 143.574 822.167 130.586 775.386 127.086C716.625 122.688 653.229 132.73 586.955 156.928C553.805 169.031 520.529 184.287 493.256 199.885C472.663 211.663 456.147 224.915 438.66 238.946C436.59 240.607 434.514 242.273 432.422 243.943C428.244 247.284 423.272 251.246 418.067 255.299C408.428 262.823 395.294 272.385 379.141 279.579C361.644 287.371 343.343 291.344 323.19 291.719C306.626 291.989 288.346 290.321 267.304 286.617C249.238 283.438 231.763 279.282 212.425 274.576C194.773 270.227 176.144 265.736 159.43 262.769C109.921 253.981 57.625 246.286 3.99902 239.892L4.19138 239.207C57.8495 245.602 110.174 253.305 159.71 262.096C176.47 265.072 195.126 269.57 212.799 273.923C245.212 281.813 285.552 291.637 323.161 291.021C366.159 290.22 393.792 273.163 417.247 254.849C422.449 250.8 427.418 246.84 431.594 243.5C433.686 241.831 435.762 240.164 437.83 238.505C455.345 224.451 471.891 211.176 492.551 199.361C519.88 183.731 553.22 168.445 586.434 156.319C652.908 132.048 716.524 121.98 775.509 126.394C798.125 128.086 820.34 132.017 841.532 138.075C864.27 144.575 886.397 153.689 907.298 165.16C928.618 176.885 949.059 189.567 968.827 201.832C970.935 203.141 973.04 204.447 975.142 205.752C1017.59 232.115 1057.68 257.016 1104.38 276.317C1121.36 283.34 1139.2 290.056 1157.42 296.276C1180.16 304.005 1202.74 310.792 1224.54 316.448C1258.81 325.337 1301.46 336.4 1343.63 329.984C1366.47 326.509 1383.89 318.791 1396.88 306.391C1421.91 282.707 1426.37 246.528 1429.95 217.458C1431.23 207.061 1432.44 197.241 1434.45 189.3C1434.86 187.662 1435.28 186.015 1435.69 184.359C1439.44 169.402 1443.31 153.935 1450.04 138.84C1459.66 117.13 1478.9 87.6906 1515.98 70.7347C1526.33 66.0042 1537.12 62.3649 1548.98 59.6075C1565.47 55.7398 1583.84 53.9218 1603.59 54.2007C1621.62 54.4552 1640.87 56.4544 1660.8 60.1408C1694.62 66.3929 1726.96 77.752 1754.31 92.9893C1784.95 110.015 1810.76 131.799 1831.04 157.733C1840.34 169.632 1848.4 182.354 1854.98 195.545C1861.28 208.179 1866.26 221.275 1869.77 234.472L1868.72 234.59C1853.42 177.087 1811.47 125.669 1753.62 93.5192C1726.38 78.3481 1694.18 67.0361 1660.51 60.8084C1618.99 53.1287 1580.55 52.9405 1549.34 60.2611C1537.57 62.9976 1526.86 66.6091 1516.59 71.3029C1479.76 88.142 1460.63 117.43 1451.07 139.032C1444.35 154.086 1440.48 169.531 1436.74 184.469C1436.33 186.124 1435.91 187.773 1435.5 189.412C1433.5 197.323 1432.29 207.131 1431.01 217.512C1427.42 246.666 1422.95 282.949 1397.76 306.785C1391.5 312.762 1384.01 317.764 1375.51 321.649C1366.36 325.829 1355.71 328.862 1343.87 330.664C1335.32 331.961 1326.47 332.613 1317.19 332.613Z" fill="#FFE492"/>
<path d="M1331.65 336.005C1318.9 336.005 1305.38 334.659 1290.82 331.957C1270.22 328.135 1250.44 322.165 1232.99 316.9C1210.94 310.245 1188.33 302.497 1165.8 293.876C1147.68 286.922 1129.93 279.478 1113.03 271.754C1071.41 252.742 1035.84 229.45 998.186 204.79C992.031 200.759 985.664 196.591 979.348 192.493C957.147 178.096 938.188 166.225 917.838 155.089C876.828 132.679 831.383 120.536 782.761 118.995C721.665 117.058 656.222 131.211 588.254 161.06C554.489 175.89 521.243 194.069 494.641 212.252C474.601 225.95 458.934 240.862 442.348 256.648C440.294 258.603 438.231 260.566 436.155 262.53C432.457 266.036 427.563 270.655 422.511 275.286C401.25 294.821 373.472 314.934 328.665 315.962C327.268 315.992 325.865 316.006 324.465 316.006C289.477 316.006 253.757 306.972 217.213 296.885L214.932 296.25C196.831 291.21 179.732 286.45 163.905 282.984C104.26 269.926 46.5756 258.903 2.98438 250.76L3.29697 250.047C46.8988 258.194 104.599 269.218 164.266 282.282C180.136 285.756 197.253 290.523 215.378 295.569L217.657 296.203C255.539 306.66 292.533 315.986 328.625 315.223C372.935 314.205 400.48 294.248 421.584 274.859C426.633 270.231 431.522 265.616 435.22 262.112C437.296 260.146 439.356 258.185 441.41 256.23C458.023 240.419 473.714 225.483 493.818 211.741C520.473 193.52 553.787 175.304 587.618 160.445C619.018 146.654 650.429 136.066 680.977 128.97C716.027 120.828 750.292 117.224 782.814 118.254C831.687 119.802 877.362 132.005 918.565 154.519C938.945 165.672 957.922 177.556 980.145 191.965C986.463 196.063 992.83 200.232 998.988 204.264C1036.61 228.899 1072.14 252.168 1113.68 271.143C1130.56 278.857 1148.28 286.289 1166.37 293.233C1188.87 301.844 1211.44 309.579 1233.46 316.223C1268.03 326.655 1311.05 339.637 1353.86 333.793C1377.27 330.598 1394.8 322.835 1407.46 310.06C1432.17 285.297 1433.65 247.082 1434.85 216.376C1435.24 206.357 1435.61 196.893 1436.78 189.267L1436.81 189.093C1439.45 172.017 1442.19 154.36 1448.45 136.939C1453.88 121.744 1461.43 108.082 1470.91 96.3307C1481.6 83.0822 1494.77 72.2338 1510.08 64.0853C1520.32 58.6332 1531.15 54.3018 1543.19 50.8455C1575.72 41.4525 1615.59 40.0023 1658.48 46.6553C1675.74 49.3325 1692.77 53.3885 1709.09 58.7081C1725.51 64.0591 1740.88 70.5831 1754.77 78.0954C1786.15 95.0391 1812.16 117.029 1832.08 143.454C1849.98 167.206 1862.48 194.301 1868.23 221.807L1867.1 221.906C1854.81 163.035 1813.6 110.825 1754.04 78.6654C1726.19 63.6024 1693.05 52.7819 1658.22 47.3804C1615.57 40.7657 1575.96 42.2002 1543.65 51.5287C1531.7 54.9589 1520.96 59.2554 1510.8 64.6639C1482.23 79.8785 1461.05 104.931 1449.56 137.112C1443.31 154.487 1440.58 172.12 1437.94 189.171L1437.92 189.346C1436.74 196.943 1436.37 206.394 1435.98 216.399C1434.78 247.199 1433.29 285.529 1408.41 310.466C1402.31 316.626 1394.87 321.736 1386.32 325.655C1377.09 329.88 1366.25 332.862 1354.09 334.523C1346.85 335.51 1339.39 336.005 1331.65 336.005Z" fill="#FFE492"/>
<path d="M329.496 340.276C313.85 340.276 296.813 338.287 277.585 334.226C258.48 330.191 239.585 324.62 222.011 319.203C218.829 318.216 215.671 317.231 212.535 316.254C196.921 311.385 182.174 306.787 168.39 303.206C113.431 288.929 61.0449 276.097 10.3817 263.69L1.9873 261.633L2.40942 260.9L10.8039 262.956C61.4697 275.366 113.864 288.198 168.834 302.479C182.655 306.069 197.421 310.673 213.053 315.548C216.187 316.525 219.345 317.51 222.524 318.495C258.6 329.615 296.928 340.392 334.102 339.432C379.798 338.191 407.183 314.967 425.933 294.876C430.736 289.737 435.364 284.616 438.858 280.73C440.787 278.587 442.703 276.447 444.613 274.312C460.456 256.612 475.42 239.893 495.1 224.129C521.077 203.325 554.358 182.175 588.817 164.58C620.787 148.255 653.047 135.357 684.707 126.244C721.02 115.792 756.489 110.368 790.128 110.122C840.746 109.63 887.76 120.991 929.844 143.885C953.173 156.592 974.09 170.337 991.477 182.107C1000.94 188.513 1010.4 195.079 1019.55 201.429C1051.94 223.908 1085.43 247.151 1122.99 265.977C1139.77 274.389 1157.38 282.539 1175.33 290.199C1197.55 299.659 1220.11 308.342 1242.39 316.008C1277.22 327.989 1320.56 342.901 1364.1 337.609C1388.07 334.696 1405.71 326.888 1418.04 313.737C1442.42 287.852 1440.77 247.543 1439.45 215.155C1439.06 205.577 1438.69 196.529 1439.13 189.245C1440.14 172.824 1441.65 153.74 1446.87 135.048C1451.28 119.21 1457.93 104.881 1466.65 92.46C1476.51 78.4097 1489.14 66.6306 1504.19 57.4485C1514.16 51.3637 1525.34 46.1992 1537.41 42.0961C1554.63 36.2223 1573.95 32.5289 1594.85 31.1205C1614.42 29.8011 1635.05 30.4948 1656.17 33.1807C1673.98 35.4466 1691.54 39.1732 1708.35 44.2592C1725.27 49.3766 1741.04 55.7525 1755.23 63.209C1771.58 71.795 1786.62 81.9341 1799.92 93.3454C1812.53 104.157 1823.7 116.215 1833.13 129.183C1850.77 153.444 1862.37 181.098 1866.69 209.152L1865.49 209.23C1856.22 148.987 1815.75 95.9878 1754.47 63.8208C1726.41 49.0716 1691.42 38.4638 1655.94 33.9511C1612.07 28.3718 1571.28 31.429 1537.96 42.7916C1525.99 46.8615 1514.91 51.9859 1505.01 58.0219C1476.65 75.3229 1457.48 101.285 1448.05 135.19C1442.84 153.831 1441.33 172.882 1440.33 189.276C1439.89 196.534 1440.26 205.568 1440.65 215.134C1441.3 231.112 1442.04 249.223 1439.56 266.732C1436.69 287.048 1429.98 302.557 1419.06 314.146C1413.12 320.487 1405.74 325.708 1397.13 329.661C1387.84 333.931 1376.8 336.865 1364.33 338.379C1358.03 339.144 1351.75 339.491 1345.5 339.491C1308.08 339.491 1271.81 327.015 1241.83 316.7C1219.52 309.022 1196.92 300.326 1174.68 290.853C1156.7 283.182 1139.06 275.02 1122.26 266.596C1084.62 247.731 1051.1 224.464 1018.67 201.964C1009.53 195.616 1000.07 189.052 990.614 182.65C973.251 170.893 952.364 157.167 929.077 144.485C887.22 121.713 840.482 110.418 790.147 110.903C711.1 111.481 637.436 140.744 589.56 165.193C555.17 182.754 521.956 203.858 496.035 224.621C476.414 240.337 461.471 257.03 445.652 274.702C443.742 276.838 441.824 278.978 439.895 281.122C436.398 285.01 431.768 290.135 426.961 295.278C419.09 303.713 406.734 315.99 390.367 325.193C382.419 329.662 373.96 333.175 365.227 335.634C355.488 338.376 345.031 339.916 334.152 340.211C332.611 340.255 331.059 340.276 329.496 340.276Z" fill="#FFE492"/>
<path d="M334.519 364.54C318.855 364.54 301.852 362.398 282.726 358.026C262.923 353.502 243.345 347.14 226.807 341.512C221.726 339.779 216.655 338.022 211.75 336.323C198.039 331.573 185.086 327.085 172.874 323.421C129.019 310.261 85.4487 297.414 43.3109 284.988C29.3728 280.878 14.9617 276.629 0.994141 272.501L1.51778 271.747C15.4853 275.874 29.8964 280.123 43.8346 284.233C85.9724 296.659 129.548 309.509 173.406 322.67C185.65 326.344 198.619 330.836 212.346 335.592C217.248 337.292 222.319 339.047 227.395 340.78C261.694 352.447 301.478 364.798 339.574 363.635C386.347 362.175 412.618 336.816 430.283 314.887C434.811 309.27 439.19 303.629 442.498 299.343C444.197 297.144 445.885 294.946 447.571 292.753C462.725 273.031 477.037 254.404 496.386 236.515C521.55 213.25 554.805 189.17 590.017 168.713C639.056 140.346 714.849 105.744 797.442 101.991C849.967 99.5404 898.311 110.058 941.125 133.253C960.361 143.68 979.383 155.707 1002.81 172.253C1014.65 180.614 1026.39 189.28 1037.75 197.659C1067.31 219.458 1097.87 242.001 1132.31 260.816C1148.99 269.934 1166.48 278.8 1184.29 287.17C1205.86 297.295 1228.42 306.927 1251.32 315.799C1286.5 329.344 1330.28 346.204 1374.35 341.431C1398.51 338.869 1416.77 330.79 1428.62 317.422C1452.66 290.365 1447.5 246.1 1443.74 213.78C1442.68 204.709 1441.68 196.142 1441.48 189.231C1441.04 173.872 1441.08 153.62 1445.3 133.166C1452.57 97.7225 1470.4 70.0158 1498.3 50.8202C1508.08 44.0574 1519.3 38.1818 1531.63 33.3554C1549.18 26.481 1568.98 21.8569 1590.48 19.6136C1610.74 17.5011 1632.06 17.5342 1653.85 19.713C1672.24 21.5919 1690.33 24.9978 1707.6 29.8328C1725.04 34.7167 1741.22 40.9392 1755.69 48.3277C1772.41 56.8649 1787.68 67.0388 1801.09 78.5687C1813.79 89.4955 1824.92 101.724 1834.17 114.919C1851.54 139.69 1862.25 167.902 1865.15 196.505L1863.88 196.559C1857.64 134.941 1817.92 81.1501 1754.91 48.9814C1726.33 34.3873 1690.38 24.2831 1653.67 20.5322C1608.4 16.0091 1566.43 20.6891 1532.29 34.0666C1520.05 38.8528 1508.93 44.6814 1499.23 51.3902C1471.51 70.4585 1453.79 98.0083 1446.56 133.278C1442.35 153.676 1442.32 173.888 1442.75 189.217C1442.95 196.104 1443.95 204.66 1445 213.719C1446.95 230.425 1449.16 249.363 1447.9 267.851C1446.43 289.379 1440.48 305.73 1429.72 317.838C1423.93 324.369 1416.61 329.703 1407.96 333.691C1398.58 338.015 1387.34 340.895 1374.56 342.251C1354.73 344.396 1333.4 342.469 1309.33 336.356C1288.41 331.041 1268.36 323.323 1250.68 316.515C1227.74 307.631 1205.16 297.986 1183.56 287.847C1165.71 279.465 1148.2 270.586 1131.49 261.456C1096.99 242.602 1066.39 220.035 1036.81 198.213C1025.45 189.836 1013.71 181.175 1001.88 172.821C978.494 156.305 959.506 144.301 940.315 133.898C897.755 110.835 849.718 100.381 797.527 102.815C715.29 106.554 639.748 141.05 590.856 169.332C555.713 189.747 522.528 213.776 497.417 236.993C478.122 254.831 463.831 273.432 448.701 293.124C447.016 295.319 445.327 297.517 443.628 299.716C440.318 304.006 435.936 309.651 431.402 315.274C413.582 337.398 387.047 362.984 339.63 364.463C337.944 364.514 336.237 364.54 334.519 364.54Z" fill="#FFE492"/>
<path d="M339.643 388.808C296.843 388.808 251.934 371.658 212.124 356.454C199.89 351.783 188.335 347.37 177.354 343.638L0 283.37L0.617174 282.598L177.972 342.866C188.982 346.606 200.55 351.025 212.8 355.703C254.149 371.495 301.019 389.393 345.045 387.842C392.85 386.16 418.033 358.666 434.632 334.904C440.061 327.132 445.303 319.224 450.374 311.576C464.242 290.66 478.581 269.031 497.665 248.901C512.819 232.918 531.644 216.155 552.103 200.428C574.548 183.174 598.58 167.344 623.525 153.38C651.03 137.984 678.998 125.248 706.647 115.527C737.23 104.776 767.358 97.7572 796.202 94.6633C853.982 88.467 906.534 97.8704 952.394 122.616C990.505 143.178 1022.9 168.605 1054.22 193.195C1081.49 214.599 1109.68 236.73 1141.61 255.648C1178.49 277.498 1218.4 297.663 1260.24 315.579C1295.49 330.675 1339.37 349.465 1384.59 345.242C1422.78 341.675 1444.86 325.005 1452.09 294.276C1458.24 268.138 1452.39 237.132 1447.69 212.22C1446.08 203.73 1444.57 195.71 1443.83 189.207C1439.73 153.357 1442.34 123.763 1451.81 98.735C1457.72 83.1195 1466.44 69.1999 1477.73 57.3633C1490.34 44.1409 1506.53 33.1182 1525.84 24.6019C1542.56 17.2343 1561.39 11.8833 1581.82 8.69708C1601.28 5.66427 1621.76 4.6481 1642.7 5.67647C1683.88 7.69834 1724.17 17.5567 1756.13 33.4337C1773.22 41.9203 1788.73 52.1308 1802.24 63.7792C1815.05 74.8193 1826.14 87.2207 1835.21 100.642C1852.3 125.924 1862.12 154.696 1863.6 183.844L1862.26 183.873C1859.11 121.802 1819.13 65.822 1755.32 34.1291C1687.56 0.471884 1591.36 -3.23198 1526.59 25.3253C1462.42 53.6141 1435.79 107.199 1445.16 189.142C1445.9 195.625 1447.41 203.634 1449.01 212.113C1453.72 237.08 1459.58 268.152 1453.4 294.409C1450.04 308.71 1443.27 320.203 1433.3 328.572C1427.69 333.276 1420.93 337.121 1413.2 339.997C1404.97 343.058 1395.41 345.113 1384.77 346.106C1380.43 346.512 1376 346.716 1371.51 346.716C1355.12 346.716 1337.67 344.013 1318.55 338.536C1297 332.366 1276.21 323.463 1259.5 316.31C1217.61 298.367 1177.64 278.176 1140.71 256.295C1108.71 237.336 1080.48 215.179 1053.19 193.753C1021.9 169.194 989.551 143.798 951.536 123.289C905.984 98.7123 853.792 89.3699 796.41 95.5244C680.336 107.973 560.768 183.995 498.793 249.361C479.76 269.435 465.439 291.034 451.589 311.922C446.516 319.574 441.271 327.487 435.837 335.266C424.816 351.042 413.932 362.339 401.583 370.813C393.876 376.101 385.513 380.271 376.729 383.204C366.961 386.465 356.322 388.32 345.107 388.715C343.295 388.776 341.47 388.808 339.643 388.808Z" fill="#FFE492"/>
</g>
</svg>
