<svg width="254" height="441" viewBox="0 0 254 441" fill="none" xmlns="http://www.w3.org/2000/svg">
<g style="mix-blend-mode:multiply" opacity="0.2">
<path d="M-3.64316 440.354C-8.49445 440.354 -14.2899 438.998 -22.0064 435.926C-42.4861 427.595 -63.4867 402.574 -85.6594 376.114C-97.869 361.583 -110.469 346.553 -123.135 334.237C-141.628 311.984 -172.983 296.65 -203.328 281.787C-225.5 270.937 -246.436 260.668 -262.65 247.992L-262.683 247.964C-274.86 238.111 -280.558 228.589 -280.102 218.874C-279.223 199.915 -254.901 183.031 -226.705 163.491L-224.003 161.609C-203.1 147.05 -176.857 127.564 -138.861 98.4748L-135.637 96.0945C-101.646 70.9628 -59.3191 39.6866 -4.48969 20.7271C105.332 -23.198 201.446 10.8183 231.791 47.6856C263.439 90.7803 260.704 136.532 221.372 222.639C180.185 312.399 88.9547 381.788 51.6421 407.445C36.3719 415.915 26.7996 423.416 19.8319 428.896C10.9759 435.815 5.21289 440.354 -3.64316 440.354ZM-259.785 245.335C-243.929 257.734 -223.189 267.892 -201.244 278.659C-170.541 293.688 -138.763 309.243 -119.879 331.995C-107.181 344.312 -94.5154 359.424 -82.2732 374.01C-60.3935 400.083 -39.7185 424.716 -20.2482 432.66C-1.00583 440.271 3.51984 436.729 16.9667 426.211C24.0646 420.648 33.7997 413.009 49.1676 404.484C86.0244 379.103 176.604 310.24 217.433 221.282C256.211 136.421 259.043 91.4999 228.275 49.623C198.809 13.8629 104.941 -19.1293 -2.7966 23.9654C-57.0725 42.7589 -99.1062 73.8136 -132.87 98.7516L-136.061 101.132C-174.09 130.249 -200.365 149.762 -221.333 164.349L-224.035 166.231C-251.45 185.218 -275.088 201.631 -275.902 218.958C-276.292 227.621 -271.018 236.229 -259.785 245.335Z" fill="#CCCCCC"/>
<path d="M-9.96248 415.278C-16.6696 415.278 -23.7675 413.451 -33.5352 410.213L-33.7306 410.157C-52.4846 402.158 -67.3315 382.867 -83.0249 362.468C-93.7369 348.518 -104.84 334.126 -118.189 321.588C-137.008 301.244 -160.678 285.412 -183.535 270.106C-198.903 259.838 -213.424 250.123 -226.089 239.384L-226.317 239.162C-252.104 209.298 -233.61 196.123 -200.075 172.181C-196.428 169.58 -192.586 166.839 -188.581 163.906C-180.702 158.951 -172.302 153.416 -163.381 147.548C-123.756 121.447 -69.4478 85.715 7.16356 56.7084C100.803 26.2348 173.15 48.2666 203.364 83.6115C233.644 120.451 221.89 164.791 187.866 238.858C150.586 313.755 82.5378 362.247 45.974 388.292L41.9041 391.198C14.7173 408.358 3.06114 415.278 -9.96248 415.278ZM-31.9073 406.891C-5.24144 415.693 -0.715698 413.59 39.2993 388.402L43.2715 385.579C79.5423 359.728 147.07 311.596 183.959 237.557C217.43 164.736 229.118 121.226 199.946 85.7427C170.708 51.5326 100.25 30.3035 8.7915 60.0574C-67.2664 88.8426 -121.314 124.437 -160.808 150.399C-169.73 156.266 -178.13 161.802 -185.944 166.729C-189.851 169.58 -193.693 172.32 -197.34 174.949C-230.908 198.918 -246.276 209.879 -222.996 236.948C-210.526 247.493 -196.135 257.098 -180.93 267.283C-157.846 282.7 -134.012 298.67 -114.965 319.263C-101.486 331.912 -90.2856 346.443 -79.476 360.503C-64.1407 380.431 -49.6194 399.28 -31.9073 406.891Z" fill="#CCCCCC"/>
<path d="M-15.4229 394.354C-23.9859 394.354 -31.9303 391.753 -41.8282 387.324C-58.3682 378.855 -71.6523 361.334 -85.7178 342.818C-94.053 331.802 -102.714 320.426 -112.612 309.991C-126.449 293.606 -142.859 279.601 -158.683 266.039C-171.674 254.912 -183.948 244.422 -193.618 233.6L-193.749 233.434C-213.349 205.368 -193.098 192.277 -156.306 168.501L-155.883 168.224L-149.078 164.266C-110.332 141.819 -57.2612 111.069 15.4431 88.7882C101.269 65.511 155.903 89.2311 176.643 116.577C198.816 145.75 193.378 184.914 157.889 251.757C132.037 298.339 89.8405 340.216 32.5041 376.225C10.3314 389.012 -3.18065 394.354 -15.4229 394.354ZM-190.2 231.469C-180.693 242.069 -168.548 252.476 -155.687 263.465C-139.733 277.11 -123.226 291.253 -109.258 307.777C-99.2624 318.267 -90.5691 329.754 -82.1689 340.853C-68.3964 359.037 -55.3728 376.197 -39.7444 384.196C-17.2136 394.327 -5.98073 394.133 30.0621 373.291C86.78 337.642 128.521 296.235 154.047 250.234C188.853 184.665 194.388 146.497 173.094 118.487C151.572 90.1168 94.9197 70.9635 16.778 92.1373C-55.3402 114.252 -108.151 144.836 -146.701 167.2L-153.766 171.324C-190.818 195.266 -207.782 206.226 -190.2 231.469Z" fill="#CCCCCC"/>
<path d="M-18.4814 375.312C-28.0538 375.312 -37.0401 372.517 -47.0683 367.036L-47.1334 367.009C-62.2408 358.207 -74.4178 341.656 -87.3112 324.163C-93.2695 316.053 -99.4558 307.695 -106.163 299.723C-115.117 288.043 -125.047 277.249 -134.652 266.842C-146.438 254.054 -157.606 241.959 -164.899 230.224C-177.63 205.452 -159.006 192.498 -126.838 174.037C-93.6928 156.6 -42.4774 131.745 20.2964 117.076C80.2376 106.586 125.136 115 146.853 140.74C170.296 168.474 164.468 212.454 130.867 261.417C95.6705 319.043 40.0272 352.837 23.8128 361.805C6.55649 370.884 -6.43459 375.312 -18.4814 375.312ZM-44.7891 364.019C-26.0351 374.233 -11.3185 376.059 21.5336 358.761C37.4875 349.931 92.4146 316.579 127.155 259.673C159.909 211.928 165.835 169.359 143.402 142.844C122.695 118.321 79.3259 110.433 21.2406 120.591C-40.882 135.122 -91.7392 159.783 -124.591 177.082C-157.704 196.069 -172.128 207.361 -161.155 228.701C-154.09 240.022 -143.052 251.979 -131.364 264.655C-121.694 275.145 -111.698 285.967 -102.712 297.73C-95.9719 305.702 -89.7857 314.143 -83.7948 322.281C-71.0968 339.414 -59.1477 355.633 -44.7891 364.019Z" fill="#CCCCCC"/>
<path d="M-20.5025 357.929C-30.6609 357.929 -40.0054 354.967 -49.708 349.044L-49.9685 348.85C-87.1183 316.882 -131.04 243.673 -139.473 229.336L-139.603 229.004C-146.18 208.467 -131.334 196.399 -101.672 181.315C-73.7366 167.974 -29.6191 150.371 22.0847 142.15C69.686 135.784 105.338 144.364 122.529 166.313C141.609 190.697 135.781 227.758 106.575 268.002C80.8538 306.807 42.955 334.734 16.0612 347.909C1.99576 354.607 -9.72549 357.929 -20.5025 357.929ZM-47.1032 346.221C-28.512 357.486 -11.9395 357.098 13.9449 344.781C40.3503 331.856 77.5653 304.399 102.929 266.176C130.864 227.675 136.855 191.113 119.013 168.306C102.799 147.575 68.6116 139.521 22.801 145.693C-28.2841 153.83 -71.9132 171.267 -99.5559 184.442C-127.947 198.863 -141.329 209.574 -135.599 227.925C-111.375 269.11 -75.4622 321.753 -47.1032 346.221Z" fill="#CCCCCC"/>
<path d="M-21.989 341.905C-32.8637 341.905 -42.2733 338.832 -49.4037 332.881C-77.9254 309.383 -107.619 259.811 -116.378 230.002C-117.81 223.11 -115.759 216.384 -110.354 209.963C-93.684 190.173 -44.2919 173.096 21.8029 164.294C59.083 161.222 86.8884 169.719 100.172 188.236C115.215 209.216 109.81 239.745 85.3581 271.962C53.5479 312.732 15.4865 338.749 -16.4539 341.628C-18.3424 341.822 -20.1983 341.905 -21.989 341.905ZM36.3242 167.256C31.8311 167.256 27.1752 167.45 22.3564 167.865C-42.5012 176.5 -90.8839 193.024 -106.87 212.067C-111.624 217.713 -113.415 223.498 -112.21 229.282C-103.614 258.483 -74.4416 307.252 -46.4083 330.335C-39.0174 336.48 -28.7938 339.164 -16.8772 338.085C13.8259 335.317 50.7478 309.881 81.8417 270.025C105.024 239.468 110.559 209.603 96.591 190.118C85.8791 175.199 64.7482 167.256 36.3242 167.256Z" fill="#CCCCCC"/>
<path d="M-21.1192 326.68C-31.2125 326.68 -40.1012 323.912 -47.0363 318.543C-71.7811 299.473 -94.6701 259.146 -95.9725 232.27V232.215C-96.1353 207.443 -47.6875 187.1 19.1888 183.889C47.678 183.308 68.8088 191.39 78.7393 206.723C90.135 224.299 85.4464 248.683 65.8784 273.649C41.6871 303.984 11.4072 323.691 -15.161 326.376C-17.2122 326.569 -19.1983 326.68 -21.1192 326.68ZM-91.7398 232.16C-90.4374 258.232 -68.2322 297.369 -44.1711 315.886C-36.8453 321.56 -27.0124 323.94 -15.6819 322.805C9.68159 320.231 38.8545 301.106 62.3621 271.628C81.0184 247.825 85.6418 224.769 75.0276 208.412C65.8785 194.324 46.1477 186.85 19.3516 187.432C-44.0734 190.504 -91.87 209.74 -91.7398 232.16Z" fill="#CCCCCC"/>
<path d="M-20.3921 312.261C-29.2156 312.261 -37.0949 309.963 -43.4439 305.452C-65.7469 289.703 -81.6031 257.818 -78.1193 235.786C-74.3425 214.64 -33.7413 199.472 14.1856 201.216C35.2187 202.24 50.7168 209.603 57.8798 221.919C66.0847 236.035 62.3404 254.773 47.5586 273.29C30.1069 294.962 7.08769 309.382 -14.0106 311.873C-16.192 312.15 -18.3083 312.261 -20.3921 312.261ZM6.59932 204.676C-35.9228 204.676 -70.6633 218.045 -73.9192 236.312C-77.1751 256.877 -61.677 287.904 -40.7415 302.712C-33.839 307.583 -24.8201 309.521 -14.5966 308.33C5.36209 305.978 27.2743 292.111 44.0748 271.269C57.9775 253.86 61.6241 236.45 54.1029 223.497C47.6562 212.398 33.3954 205.755 13.9902 204.787C11.5157 204.731 9.04124 204.676 6.59932 204.676Z" fill="#CCCCCC"/>
<path d="M-18.4001 298.476C-25.498 298.476 -31.9447 296.733 -37.3495 293.328C-56.0709 281.51 -66.5874 257.734 -60.7919 240.325C-54.8988 223.109 -24.2933 212.757 8.81923 216.743C23.5034 218.597 34.2804 224.797 39.1643 234.208C44.6993 244.864 41.9643 258.371 31.6757 271.269C19.8568 285.993 4.00051 295.736 -11.8232 297.978C-14.0372 298.31 -16.2512 298.476 -18.4001 298.476ZM-56.7221 241.321C-61.9966 257.125 -51.9684 279.627 -34.8424 290.45C-28.7539 294.297 -21.0374 295.681 -12.5069 294.463C1.98187 292.387 17.2195 282.977 28.2244 269.276C37.6666 257.43 40.2387 245.196 35.3223 235.675C31.057 227.427 21.4196 221.974 8.23319 220.313C-22.3397 216.604 -51.4801 226.043 -56.7221 241.321Z" fill="#CCCCCC"/>
<path d="M-16.7651 285.136C-21.6815 285.136 -26.4351 284.057 -30.6027 281.732C-44.538 274.065 -51.0498 257.79 -45.1566 245.474C-39.2308 233.212 -18.1 226.597 1.98893 230.749C11.2682 232.659 18.0405 237.336 21.0685 243.868C24.3895 251.065 22.6964 259.811 16.4451 267.838C7.81695 278.853 -4.97874 285.136 -16.7651 285.136ZM-28.3236 278.743C-16.3093 285.358 2.18428 279.601 12.9288 265.872C18.3987 258.842 19.9615 251.286 17.1289 245.197C14.6218 239.772 8.8914 235.869 0.979557 234.236C-17.1558 230.5 -36.1051 236.146 -41.2495 246.83C-46.4263 257.652 -40.6309 271.962 -28.3236 278.743Z" fill="#CCCCCC"/>
<path d="M-15.5397 272.044C-18.2095 272.044 -20.8142 271.518 -23.1911 270.411C-31.3308 266.619 -34.6192 257.901 -30.4842 250.954C-26.4144 244.089 -15.2467 240.796 -5.64174 243.619C-1.01836 244.975 2.36779 247.688 3.83295 251.286C5.39579 255.078 4.64693 259.506 1.74918 263.409C-2.38582 268.917 -9.06042 272.044 -15.5397 272.044ZM-12.9349 246.193C-18.8281 246.193 -24.3957 248.601 -26.7725 252.587C-29.8656 257.818 -27.3912 264.405 -21.205 267.256C-15.0513 270.135 -6.35802 267.533 -1.86488 261.471C0.381695 258.454 0.967739 255.271 -0.204388 252.448C-1.24627 249.902 -3.68821 247.964 -7.07434 246.968C-8.99533 246.442 -10.9814 246.193 -12.9349 246.193Z" fill="#CCCCCC"/>
</g>
</svg>
